<svg width="33" height="33" viewBox="0 0 33 33" fill="none" xmlns="http://www.w3.org/2000/svg">
<path fill-rule="evenodd" clip-rule="evenodd" d="M16.5 33C25.6127 33 33 25.6127 33 16.5C33 7.3873 25.6127 0 16.5 0C7.3873 0 0 7.3873 0 16.5C0 25.6127 7.3873 33 16.5 33ZM8.25 10.5769C8.25 10.1096 8.62882 9.73077 9.09615 9.73077H23.9038C24.3712 9.73077 24.75 10.1096 24.75 10.5769V11.6346L16.5 16.0769L8.25 11.6346V10.5769ZM8.25 13.75L16.5 17.9808L24.75 13.75V21.7885C24.75 22.4895 24.1818 23.0577 23.4808 23.0577H9.51923C8.81823 23.0577 8.25 22.4895 8.25 21.7885V13.75Z" fill="white"/>
</svg>
