<svg width="34" height="35" viewBox="0 0 34 35" fill="none" xmlns="http://www.w3.org/2000/svg">
<path d="M16.5808 0.919189C7.41991 0.919189 0 8.53174 0 17.921C0 25.4343 4.7504 31.8058 11.3371 34.0514C12.1662 34.2115 12.4701 33.6859 12.4701 33.2339C12.4701 32.8301 12.4563 31.7604 12.4494 30.3436C7.83719 31.3694 6.86445 28.0625 6.86445 28.0625C6.11002 26.1002 5.01984 25.576 5.01984 25.576C3.51789 24.5219 5.1359 24.5432 5.1359 24.5432C6.80089 24.6622 7.67553 26.2943 7.67553 26.2943C9.15398 28.8942 11.5568 28.1433 12.5047 27.7083C12.6539 26.6089 13.0809 25.8594 13.5548 25.4343C9.87249 25.0093 6.00225 23.5471 6.00225 17.0326C6.00225 15.1766 6.64476 13.6606 7.70869 12.4705C7.52216 12.0412 6.96255 10.3127 7.85377 7.97068C7.85377 7.97068 9.24241 7.51446 12.4135 9.71336C13.74 9.33507 15.1493 9.14805 16.5587 9.13955C17.9681 9.14805 19.3774 9.33507 20.7039 9.71336C23.8542 7.51446 25.2429 7.97068 25.2429 7.97068C26.1341 10.3127 25.5745 12.0412 25.4087 12.4705C26.4657 13.6606 27.1082 15.1766 27.1082 17.0326C27.1082 23.5641 23.2325 25.0022 19.5432 25.4202C20.1236 25.9302 20.6624 26.973 20.6624 28.5655C20.6624 30.8409 20.6417 32.6686 20.6417 33.2212C20.6417 33.6675 20.9319 34.1988 21.7816 34.0287C28.4153 31.7987 33.1616 25.423 33.1616 17.921C33.1616 8.53174 25.7375 0.919189 16.5808 0.919189Z" fill="white"/>
</svg>
