<svg width="34" height="35" viewBox="0 0 34 35" fill="none" xmlns="http://www.w3.org/2000/svg">
<path d="M16.9997 0.919189C8.03067 0.919189 0.757324 8.34407 0.757324 17.5C0.757324 26.6559 8.03067 34.0808 16.9997 34.0808C25.9688 34.0808 33.2422 26.6559 33.2422 17.5C33.2422 8.34407 25.9688 0.919189 16.9997 0.919189ZM12.2799 25.9847H8.32412V13.8357H12.2799V25.9847ZM10.3021 12.1768H10.2763C8.94892 12.1768 8.0904 11.244 8.0904 10.0781C8.0904 8.886 8.97519 7.97898 10.3284 7.97898C11.6816 7.97898 12.5143 8.886 12.5401 10.0781C12.5401 11.244 11.6816 12.1768 10.3021 12.1768ZM26.5435 25.9847H22.5883V19.4853C22.5883 17.8519 22.0155 16.7379 20.5842 16.7379C19.4915 16.7379 18.8407 17.4894 18.5547 18.2147C18.4501 18.4743 18.4246 18.8371 18.4246 19.2002V25.9847H14.4691C14.4691 25.9847 14.5208 14.9755 14.4691 13.8357H18.4246V15.5559C18.9502 14.7281 19.8908 13.5506 21.9895 13.5506C24.5921 13.5506 26.5435 15.287 26.5435 19.0185V25.9847Z" fill="white"/>
</svg>
