<svg width="33" height="33" viewBox="0 0 33 33" fill="none" xmlns="http://www.w3.org/2000/svg">
<path fill-rule="evenodd" clip-rule="evenodd" d="M32.9999 16.3928C32.9999 25.3856 25.7098 32.6757 16.717 32.6757C7.7242 32.6757 0.434082 25.3856 0.434082 16.3928C0.434082 7.39998 7.7242 0.109863 16.717 0.109863C25.7098 0.109863 32.9999 7.39998 32.9999 16.3928ZM21.9461 19.2415H23.6853V26.1983H8.03242V19.2415H9.77163V24.4591H21.9461V19.2415ZM20.2089 20.5198L11.667 18.7245L12.026 17.0161L20.5679 18.8122L20.2089 20.5198ZM20.7101 18.3195L12.7973 14.6343L13.5342 13.0518L21.4472 16.737L20.7101 18.3195ZM21.6951 16.3384L14.9868 10.7522L16.104 9.41082L22.8123 14.9969L21.6951 16.3384ZM17.9161 7.66497L19.317 6.62302L24.5264 13.6275L23.1255 14.6693L17.9161 7.66497ZM20.2068 22.7199H11.5108V20.9807H20.2068V22.7199Z" fill="white"/>
</svg>
