<?xml version="1.0" encoding="utf-8"?>
<!-- Generator: Adobe Illustrator 23.0.6, SVG Export Plug-In . SVG Version: 6.00 Build 0)  -->
<svg version="1.1" id="Lager_1" xmlns="http://www.w3.org/2000/svg" xmlns:xlink="http://www.w3.org/1999/xlink" x="0px" y="0px"
	 viewBox="0 0 1000 1000" style="enable-background:new 0 0 1000 1000;" xml:space="preserve">
<g>
	<path d="M552.95,783.78c-3,0.32-6.12,0.83-8.67,2.42c-5.74,3.58-10.87,6.88-15.53,11.05l-2.08,1.86
		c-8.06,7.23-16.4,14.7-25.54,20.71l-0.35,0.23c-6.44,4.24-12.53,8.24-19.9,8.86c-3.82,0.32-7.71,0.68-11.46,1.02
		c-9.72,0.89-19.77,1.8-29.63,2.24c-18.54,0.81-38.12,1.3-59.84,1.5c-19.06,0.17-39.59,0.09-64.62-0.26
		c-20.12-0.28-41.69-0.67-63.08-1.58c-12.42-0.52-25.06-1.42-37.28-2.29c-5.58-0.4-11.35-0.81-17.03-1.18
		c-9.65-0.63-18.29-3.74-26.39-9.51c-25.48-18.13-41.32-43.78-48.43-78.4c-1.23-6.01,0.65-9.19,6.7-11.35
		c3.35-1.2,8.38-2.83,13.34-3.24c18.43-1.51,35.07-2.81,51.98-3.39c17.15-0.59,34.62-0.75,51.51-0.9c4.78-0.04,9.55-0.09,14.33-0.14
		c14.36-0.16,28.95-0.26,43.07-0.35c8.44-0.06,16.89-0.12,25.33-0.19l7.33-0.06c14.01-0.11,28.5-0.23,42.75-0.42
		c5.23-0.07,10.45-0.13,15.68-0.19c18.19-0.22,36.99-0.44,55.49-0.95c18.09-0.5,35.85-1.58,50.84-2.57
		c5.31-0.35,10.42-1.92,14.27-3.25c2.64-0.91,4.38-3.03,4.53-5.53c0.16-2.62-1.41-5.06-4.1-6.37c-2.81-1.37-5.53-2.21-8.09-2.51
		c-1.43-0.16-2.87-0.33-4.3-0.5c-8.32-0.97-16.93-1.97-25.47-2.39c-19.31-0.95-38.94-1.5-57.93-2.04l-0.09,0
		c-14.68-0.41-29.6-0.67-44.03-0.91l-4.08-0.07c-16.03-0.27-32.33-0.52-48.09-0.76c-6.61-0.1-13.21-0.2-19.82-0.3l-16.63-0.26
		c-14.78-0.23-29.56-0.46-44.34-0.67c-25.36-0.37-50.73-0.73-76.09-1.08c-9.46-0.13-18.93-0.25-28.39-0.37l-12.85-0.17
		c0.01-0.18,0.02-0.37,0.02-0.58l0-474.24c0-0.16,0-0.32,0.01-0.48c0-0.04,0-0.09,0-0.13c0.13,0,0.25-0.01,0.37-0.01
		c0.19,0,0.37-0.01,0.56-0.01l418.46,0c1.44,0,2.93,0,3.72,0.09c0.11,0.77,0.15,2.2,0.2,3.6l0,0.14
		c0.44,14.31,0.94,28.85,1.43,42.91l0.02,0.44c0.24,6.96,0.47,13.93,0.69,20.89c0.58,17.92,1.19,36.45,2,54.67
		c0.58,13.02,1.86,25.74,3.02,36.48c0.44,4,1.72,8.3,3.81,12.77c1.21,2.58,3.52,4.17,6.2,4.26c2.83,0.1,5.55-1.53,7.06-4.24
		c1.09-1.96,1.82-4.01,2.12-5.94c0.18-1.13,0.36-2.26,0.54-3.39c0.78-4.82,1.58-9.81,1.85-14.83c0.94-17.53,1.57-33.35,1.94-48.37
		c0.54-21.99,0.87-43.6,0.99-64.25c0.11-18.95-0.09-38.16-0.32-57.81c-0.22-18.64-1.34-34.16-3.51-48.83
		c-2.95-19.86-8.78-34.94-18.35-47.47c-5.03-6.59-10.55-12.76-15.28-17.94c-12.2-13.34-27.06-22.53-44.15-27.3
		c-20.77-5.8-42.49-7.33-62.95-8.39c-9.23-0.48-18.6-0.69-27.66-0.89c-4.35-0.1-8.86-0.2-13.28-0.33c-0.31-0.01-0.73-0.09-1.17-0.17
		c-0.29-0.05-0.58-0.11-0.87-0.15L393.23,40h-105.1l-0.24,0.04c-0.29,0.04-0.59,0.1-0.88,0.15c-0.44,0.08-0.85,0.16-1.14,0.17
		c-4.96,0.13-10.02,0.22-14.9,0.3c-10.48,0.19-21.31,0.38-31.98,0.93c-16.79,0.87-34.35,2.19-52.21,3.91
		c-11.16,1.08-20.71,6.42-29.37,12.02c-20.29,13.14-36.87,30.42-49.3,51.36c-6.75,11.37-10.41,24.16-10.89,38.04
		c-0.27,7.88-0.57,15.89-0.86,23.64c-0.42,11.15-0.85,22.69-1.21,34.04c-0.21,6.82-0.3,13.74-0.38,20.43
		c-0.05,3.69-0.09,7.38-0.16,11.07c-0.01,0.59-0.1,1.26-0.19,1.97c-0.05,0.39-0.1,0.78-0.15,1.17l-0.02,0.17v237.68l0.02,0.31
		c0.04,0.41,0.09,0.83,0.14,1.24c0.09,0.77,0.18,1.49,0.18,2.14c0.17,28.53,0.32,57.06,0.47,85.59l0.03,6.12
		c0.17,32.47,0.35,64.94,0.52,97.42l0.1,19.34c0.14,27.22,0.28,55.36,0.49,83.05c0.02,2.31,0.71,4.82,1.89,6.9
		c3.15,5.55,6.44,11.12,9.62,16.51c1.6,2.71,3.2,5.41,4.78,8.13c6.09,10.42,13.14,21.2,23.38,29.5c12.2,9.88,27.25,17.61,46,23.62
		c14.32,4.59,29.27,5.06,43.78,5.52c18.65,0.59,37.97,0.9,59.07,0.96c6.31,0.02,12.74,0.03,19.34,0.03c21.95,0,45.85-0.1,73.64-0.3
		c16.36-0.12,33.96-0.32,51.89-1.02c17.97-0.7,35.91-1.9,53.25-3.06c10.75-0.72,20.82-3.59,29.94-8.54
		c14.12-7.67,26.9-17.34,37.98-28.76c3.92-4.04,8.82-9.55,11.98-16.43c2.13-4.64,2.21-9.69,0.24-15
		C561.28,785.75,557.53,783.29,552.95,783.78z M128.4,164.76c1.08-22.51,7.11-39.02,18.96-51.98c8.03-8.78,16.58-17.4,24.84-25.75
		c2.66-2.68,5.32-5.37,7.97-8.06c0.15-0.08,0.54-0.2,0.94-0.21c7.85-0.21,16.09-0.36,24.48-0.45l9.87-0.1
		c22.11-0.22,44.97-0.46,67.45-0.6c10.89-0.07,21.78-0.15,32.66-0.24c35.75-0.27,72.73-0.55,109.08-0.47
		c12.77,0.03,25.8,0.8,38.41,1.54c4.71,0.28,9.59,0.57,14.39,0.81c7.78,0.4,14.71,2.78,21.21,7.28
		c14.64,10.15,26.13,20.69,35.11,32.22c5.45,6.99,8.37,15.17,8.68,24.3c0.24,7.06,0.31,14.26,0.38,21.22
		c0.04,4.49,0.09,9.12,0.18,13.7c-6.71,0.03-13.51,0.1-20.09,0.17c-5.08,0.06-10.17,0.11-15.25,0.15
		c-31.67,0.22-67.58,0.46-102.61,0.64c-10.45,0.05-21.07,0.04-31.35,0.03c-4.75-0.01-9.49-0.01-14.24-0.01h-3.22l0,0.99
		c-7.44,0-14.88,0-22.31-0.01c-19.34-0.01-39.33-0.02-59,0.02c-8.37,0.02-16.87,0.08-25.09,0.14c-13.62,0.1-27.71,0.21-41.55,0.1
		c-15.98-0.13-32.35-0.65-48.63-1.55c-5.26-0.29-10.67-1.3-15.91-2.28c-1.79-0.33-3.64-0.68-5.47-0.99
		c-1.06-0.18-2.24-0.73-3.49-1.31l-0.57-0.26C130.03,171.9,128.19,169.03,128.4,164.76z"/>
	<path d="M919.74,891.4c-0.28-1.27-0.54-2.55-0.8-3.82c-0.58-2.84-1.18-5.79-2.01-8.68c-1.28-4.45-2.66-8.94-3.99-13.29
		c-2.07-6.74-4.21-13.71-5.99-20.61c-7.57-29.35-10.77-59.59-13.39-88.05l-0.79-8.62c-1.72-18.69-3.49-38.03-5.66-57.01
		c-3.05-26.66-7.93-52.85-14.5-77.85c-6.53-24.85-14.04-44.78-23.63-62.71c-12.42-23.23-28.73-40.17-49.87-51.8
		c-39.51-21.74-79.77-40.06-119.66-54.45l-0.49-0.18c-9.3-3.36-18.91-6.83-29.37-6.88c-4.13-0.02-8.41,0.44-12.68,1.36
		c-2.44,0.53-4.2,1.91-4.96,3.9c-0.8,2.09-0.36,4.47,1.25,6.7c1.27,1.75,2.84,3.39,4.55,4.73c2.91,2.28,5.59,4.17,8.19,5.78
		c15.91,9.78,32.97,17.46,50.52,25.11c28.33,12.36,54.21,24.58,79.14,37.36c17.99,9.23,31.88,22.21,42.46,39.7
		c6.95,11.49,12.72,23.83,17.62,37.73c14.61,41.44,20.02,84.06,23.11,116.56c0.95,10.01,1.7,20.23,2.42,30.11
		c0.48,6.63,0.99,13.48,1.54,20.22c2.2,26.6,5.83,51.09,11.07,74.87c3.83,17.35,7.97,31.55,13.04,44.67
		c2.62,6.77,6.3,11.76,11.28,15.25c3.24,2.27,6.44,3.4,9.49,3.4c4.19,0,8.11-2.12,11.49-6.32l0.71-0.89v-5.95L919.74,891.4z"/>
	<path d="M613.99,860.09c-8.06-6.66-15.02-10.48-22.55-12.41c-4.26-1.09-7.99-1-11.42,0.26c-3.53,1.3-6.02,3.53-7.18,6.45
		c-1.15,2.9-0.89,6.19,0.76,9.52c0.78,1.57,1.86,3.58,3.37,5.29c4.54,5.15,9.15,10.14,13.06,14.34c2.07,2.22,4.21,4.44,6.27,6.58
		c4.16,4.31,8.47,8.77,12.3,13.41c4.12,4.98,7.84,10.61,11.06,16.72c0.18,0.34,0.36,0.69,0.54,1.03c2.25,4.32,4.59,8.79,9.85,11.39
		l0.67,0.33h6.89l0.62-0.27c6.33-2.8,9.68-8.07,9.93-15.69c0.19-5.69-1.12-11.54-4.11-18.41
		C637.77,884.21,627.94,871.61,613.99,860.09z"/>
	<path d="M744.93,593.37c-5.35-7.46-12.63-14.1-22.9-20.9c-4.19-2.78-8.56-5.39-12.77-7.91c-4.08-2.44-8.3-4.96-12.3-7.61
		c-16.41-10.82-33.24-23.92-51.44-40.03c-13.73-12.15-27.53-24.7-40.87-36.84c-10.57-9.61-21.49-19.56-32.33-29.24
		c-13.92-12.45-28.77-25.31-45.4-39.33c-9.64-8.12-21.38-12.39-34.89-12.69c-8.11-0.19-15.94,1.78-23.94,6.02
		c-9.2,4.88-16.19,12.12-21.25,17.88c-11.55,13.15-14.93,28.62-10.04,45.98c3.48,12.38,9.17,23.48,13.73,31.77
		c12.08,21.94,26.39,42.46,40.24,62.31c4.15,5.95,8.31,11.9,12.47,17.84c11.83,16.91,24.07,34.4,35.88,51.73
		c5.95,8.73,13.34,20.43,17.72,33.53c1.55,4.65,2.64,9.65,3.68,14.47c0.51,2.33,1.03,4.74,1.6,7.11
		c7.53,31.14,21.23,60.77,40.73,88.07c7.86,11.01,17.46,19.95,28.52,26.56c1.9,1.14,3.83,2.34,5.7,3.5
		c2.42,1.51,4.92,3.06,7.44,4.53c14.97,8.71,35.01,19.62,57.39,26.67c4.17,1.31,8.98,2.08,15.13,2.41c0.25,0.01,0.49,0.02,0.74,0.02
		c5.68,0,9.83-3.62,10.93-9.59c1.54-8.37-1.97-13.25-5.19-15.86c-2.19-1.78-4.55-3.62-7.26-4.84c-6.9-3.11-12.28-5.31-17.45-7.12
		c-12.94-4.53-23.06-9.23-31.85-14.82c-19.63-12.47-35.83-27.97-48.15-46.08c-12.03-17.69-20.72-38.39-25.83-61.54
		c-0.73-3.3-1.36-6.71-1.98-10c-0.96-5.12-1.94-10.42-3.32-15.59c-3.13-11.73-8.94-23.5-18.3-37.06
		c-9.09-13.17-18.56-26.4-27.72-39.19c-3.49-4.87-6.97-9.74-10.45-14.62c-17.05-23.94-36.38-51.08-52.88-79.07
		c-4.11-6.98-7.74-14.47-11.25-21.72l-1.42-2.92c-1.84-3.8-1.61-7.5,0.68-11.02c6.04-9.25,14.32-15.66,24.64-19.04
		c2.78-0.91,4.92-0.57,6.95,1.1c2.58,2.13,5.23,4.23,7.8,6.27c4.85,3.85,9.87,7.83,14.45,12.04c19.85,18.23,39.67,36.88,59.92,55.97
		c20.97,19.78,38.88,36.09,58.11,51.4c8.78,6.99,17.95,13.26,25.77,18.46c3.97,2.65,8.15,5.04,12.18,7.36
		c2.89,1.66,5.88,3.38,8.74,5.15c10.2,6.34,19.64,14.2,28.77,21.81c1.11,0.92,2.22,1.85,3.33,2.77c4.7,3.9,9.92,7.78,16.28,9.77
		c4.87,1.53,10.14,0.32,13.76-3.16c3.56-3.42,4.91-8.33,3.61-13.13C749.63,601.18,747.66,597.17,744.93,593.37z"/>
	<path d="M279.57,549.26c-0.16,4.78-0.96,9.72-1.72,14.49l-0.21,1.32c-0.01,0.07-0.02,0.14-0.03,0.2c-0.13-0.06-0.27-0.12-0.42-0.19
		c-1.29-0.61-2.5-1.18-3.37-1.9c-3.72-3.09-7.48-6.3-11.1-9.4c-1.7-1.45-3.4-2.9-5.1-4.35c-1.66-1.41-3.34-2.87-4.97-4.28
		c-4.04-3.51-8.22-7.13-12.58-10.46c-4.88-3.72-10.31-5.94-16.12-6.59c-6.27-0.71-11.12,2.67-12.66,8.81
		c-0.93,3.68-0.48,7.01,1.31,9.9c0.42,0.67,0.83,1.35,1.25,2.02c1.93,3.14,3.92,6.39,6.23,9.42c13.65,18,29.67,34.9,48.97,51.67
		c4.76,4.13,9.86,7.93,14.79,11.6c1.95,1.45,3.96,2.95,5.91,4.44c2.01,1.54,4.22,2.31,6.47,2.31c2.11,0,4.24-0.68,6.27-2.04
		c0.69-0.46,1.39-0.93,2.08-1.39c3.37-2.24,6.86-4.55,10.1-7.18c16.03-13,31.15-27.68,46.21-44.9c5.54-6.33,10.59-13.18,15.47-19.81
		c0.95-1.29,1.91-2.59,2.86-3.88c1.21-1.63,1.81-3.51,2.35-5.16c0.21-0.66,0.41-1.29,0.64-1.86l0.28-0.69l-0.06-0.74
		c-0.45-5.71-2.84-8.7-4.77-10.2c-1.86-1.44-5.18-2.98-10.43-2.07c-6.29,1.09-12.26,4.02-18.23,8.94c-3.36,2.77-6.57,5.76-9.68,8.65
		c-2.78,2.59-5.66,5.27-8.59,7.73c-4.85,4.08-10.05,7.96-15.48,11.54c-0.01-0.05-0.02-0.1-0.02-0.15l-0.24-1.63
		c-0.83-5.58-1.69-11.35-1.91-16.96c-0.65-16.13-1.15-33.34-1.57-54.18c-0.15-7.41-0.21-14.96-0.27-22.26
		c-0.07-8.87-0.15-18.04-0.38-27.08c-0.14-5.41-1-10.79-1.84-15.99l-0.26-1.61c-0.64-4.02-2.91-7-6.38-8.39
		c-4.48-1.79-8.86-1.71-12.34,0.23c-3.3,1.84-5.53,5.25-6.29,9.59c-1.08,6.23-1.74,12.93-1.95,19.9
		c-0.22,7.42-0.28,14.95-0.33,22.23c-0.04,5.72-0.08,11.64-0.21,17.45C280.88,503.71,280.35,526.51,279.57,549.26z"/>
	<path d="M300.43,351.61c-0.84-0.12-1.65-0.17-2.09-0.19l-0.39-0.02c-0.08,0-0.16,0-0.24,0c-9.73,0-14.96,3.96-16,12.09
		c-0.73,5.72-0.27,11.73,1.41,18.36c1.94,7.68,6.76,9.89,10.46,10.38c0.55,0.07,1.08,0.11,1.59,0.11c6.4,0,9.59-5.45,10.7-7.34
		c3.72-6.35,5.31-13.74,4.85-22.57C310.37,355.75,307.39,352.62,300.43,351.61z"/>
	<path d="M308.04,290.28c-2.84-3.01-7.22-3.42-10.72-3.44c-0.08,0-0.16,0-0.24,0c-5.81,0-13.58,1.22-15.19,11.11
		c-1.22,7.46-0.49,14.82,2.17,21.87c1.53,4.08,4.62,6.86,8.45,7.64c0.71,0.14,1.41,0.21,2.12,0.21c3.15,0,6.23-1.4,8.68-4
		c1.18-1.25,2.26-2.79,3.31-4.71c3.17-5.83,3.9-12.03,4.21-17.87C311.02,297.64,310.87,293.28,308.04,290.28z"/>
	<path d="M296.87,141.14c3.77,2.38,5.43,6.03,4.44,9.76c-0.77,2.93-1.32,6.29,0.48,8.99c1.8,2.7,5.09,3.47,8.06,3.88
		c0.25,0.03,0.5,0.06,0.74,0.08l0.41,1.3l3.01-0.85c0.78-0.22,1.57-0.42,2.36-0.63c1.94-0.5,3.94-1.02,5.91-1.78
		c3.51-1.35,5.57-4.41,5.37-7.99c-0.06-0.99,0.18-1.67,1.53-2.22l0.34-0.14c3.38-1.36,6.87-2.77,10.29-3.42
		c3.78-0.72,7.69-1.28,11.48-1.81c3.77-0.53,7.66-1.08,11.49-1.81c6.28-1.19,12.3-2.96,16.83-4.36c4.12-1.28,6.94-4.39,7.54-8.34
		c0.98-6.41-1.33-14.02-8.69-16.57c-4.23-1.47-8.81-2.93-13.61-3.74c-14.39-2.41-29.45-2.74-46.04-0.98
		c-7.51,0.79-15.46,1.86-22.89,5.38c-6.97,3.3-9.51,10.32-6.33,17.47C291.32,137.27,294.39,139.57,296.87,141.14z"/>
</g>
</svg>
