<?xml version="1.0" encoding="utf-8"?>
<!-- Generator: Adobe Illustrator 23.0.6, SVG Export Plug-In . SVG Version: 6.00 Build 0)  -->
<svg version="1.1" id="Lager_1" xmlns="http://www.w3.org/2000/svg" xmlns:xlink="http://www.w3.org/1999/xlink" x="0px" y="0px"
	 viewBox="0 0 1000 1000" style="enable-background:new 0 0 1000 1000;" xml:space="preserve">
<g id="YfDlsv.tif">
	<g>
		<path d="M476.59,40c19.24,0,38.49,0,57.73,0c1.08,0.5,2.12,1.31,3.24,1.44c7.07,0.78,14.18,1.27,21.24,2.11
			c7.91,0.94,15.81,2.02,23.67,3.29c6.57,1.06,13.11,2.35,19.61,3.78c7.17,1.58,14.32,3.28,21.4,5.21
			c8.95,2.44,17.9,4.95,26.71,7.84c8.24,2.71,16.4,5.72,24.41,9.03c8.99,3.71,17.95,7.59,26.63,11.97
			c13.09,6.6,26.21,13.24,38.8,20.73c11.75,6.99,22.94,14.95,34.15,22.79c7.69,5.38,15.27,10.98,22.42,17.04
			c9.11,7.73,17.84,15.92,26.55,24.1c14.25,13.39,27.62,27.62,39.75,42.97c6.86,8.68,13.78,17.34,20.08,26.42
			c6.8,9.8,13.04,19.99,19.28,30.16c4.03,6.58,7.93,13.29,11.33,20.22c5.83,11.89,11.4,23.93,16.75,36.04
			c3.68,8.33,7.06,16.81,10.1,25.4c3.32,9.41,6.11,19,9.08,28.53c0.78,2.5,1.48,5.04,2.06,7.6c0.76,3.41,1.28,6.88,2.06,10.29
			c1.6,7,3.5,13.94,4.91,20.97c1.41,7.04,2.56,14.15,3.5,21.26c0.92,6.97,1.47,13.98,2.09,20.98c0.23,2.63,0.08,5.3,0.38,7.93
			c0.14,1.21,0.94,2.34,1.45,3.5c0,19.24,0,38.49,0,57.73c-0.52,1.43-1.37,2.83-1.49,4.29c-0.43,5.18-0.39,10.41-0.95,15.58
			c-0.74,6.79-1.85,13.54-2.86,20.3c-0.74,4.94-1.46,9.89-2.39,14.8c-0.87,4.55-2.04,9.05-3.01,13.59c-0.8,3.69-1.46,7.4-2.27,11.09
			c-0.54,2.47-1.15,4.94-1.88,7.37c-1.54,5.12-3.19,10.2-4.76,15.31c-1.43,4.68-2.64,9.44-4.24,14.07
			c-2.06,5.96-4.35,11.85-6.68,17.71c-3.14,7.89-6.19,15.84-9.69,23.57c-3.76,8.32-7.86,16.5-12.08,24.6
			c-4.22,8.1-8.52,16.17-13.25,23.97c-4.77,7.88-9.91,15.56-15.25,23.06c-7.9,11.08-15.78,22.19-24.31,32.78
			c-7.04,8.74-14.81,16.93-22.62,25.02c-8.8,9.11-17.91,17.93-27.06,26.7c-4.31,4.13-8.92,7.97-13.6,11.69
			c-7.14,5.67-14.29,11.37-21.75,16.62c-11.4,8.04-22.92,15.94-34.68,23.44c-7.84,5-16.11,9.33-24.33,13.71
			c-6.43,3.43-13.03,6.54-19.64,9.64c-5.55,2.6-11.18,5.04-16.83,7.43c-6.62,2.8-13.22,5.65-19.97,8.12
			c-6.08,2.22-12.32,3.99-18.51,5.9c-6.03,1.86-12.07,3.67-18.13,5.43c-2.6,0.76-5.24,1.37-7.86,2.03
			c-3.99,1.01-7.95,2.11-11.97,2.99c-3.93,0.86-7.92,1.49-11.88,2.24c-8.43,1.58-16.83,3.41-25.31,4.69
			c-6.94,1.05-13.98,1.49-20.99,2.11c-2.63,0.23-5.31,0.08-7.93,0.38c-1.21,0.14-2.34,0.95-3.5,1.45c-19.24,0-38.49,0-57.73,0
			c-1.43-0.52-2.83-1.37-4.29-1.49c-5.27-0.43-10.59-0.39-15.84-0.96c-6.61-0.72-13.18-1.84-19.77-2.84
			c-5.03-0.76-10.07-1.47-15.07-2.4c-4.99-0.93-9.93-2.11-14.9-3.18c-3.25-0.7-6.52-1.37-9.76-2.11c-2.47-0.57-4.94-1.14-7.37-1.86
			c-5.21-1.55-10.38-3.2-15.57-4.8c-4.68-1.44-9.42-2.7-14.04-4.31c-5.87-2.04-11.69-4.27-17.47-6.57
			c-8.06-3.21-16.15-6.36-24.06-9.93c-8-3.61-15.88-7.53-23.65-11.62c-8.62-4.53-17.1-9.34-25.54-14.18
			c-3.95-2.27-7.76-4.82-11.53-7.38c-9.14-6.23-18.36-12.35-27.28-18.88c-6.65-4.87-13.07-10.1-19.24-15.57
			c-10.47-9.27-21.01-18.51-30.87-28.4c-10.17-10.21-19.81-20.98-29.23-31.9c-6.41-7.43-12.08-15.49-17.99-23.34
			c-3.59-4.77-7.21-9.54-10.43-14.55c-5.41-8.41-10.78-16.88-15.69-25.59c-6-10.63-11.67-21.45-17.17-32.35
			c-3.63-7.2-6.79-14.64-10.02-22.03c-2.14-4.9-4.17-9.86-5.98-14.88c-2.12-5.85-3.97-11.79-5.9-17.71
			c-2.23-6.82-4.43-13.66-6.59-20.5c-0.74-2.34-1.41-4.7-1.96-7.08c-0.8-3.49-1.39-7.03-2.18-10.53c-1.6-7.1-3.44-14.14-4.86-21.28
			c-1.37-6.87-2.48-13.8-3.44-20.74c-0.85-6.17-1.42-12.39-1.97-18.6c-0.3-3.42-0.19-6.89-0.51-10.31
			c-0.12-1.29-0.95-2.51-1.46-3.77c0-19.24,0-38.49,0-57.73c0.52-1.43,1.37-2.83,1.49-4.3c0.43-5.18,0.38-10.41,0.95-15.58
			c0.7-6.35,1.84-12.66,2.79-18.98c0.79-5.29,1.35-10.62,2.41-15.86c1.4-6.86,3.2-13.64,4.82-20.46c1.11-4.67,2.03-9.39,3.35-14
			c2.29-8,4.69-15.96,7.28-23.86c2.26-6.9,4.7-13.76,7.3-20.54c3.08-8.02,6.03-16.13,9.74-23.87c6.1-12.75,12.44-25.41,19.28-37.76
			c5.86-10.59,12.23-20.94,19.02-30.96c7.09-10.45,14.75-20.52,22.53-30.47c6.16-7.89,12.54-15.66,19.41-22.92
			c10.35-10.92,20.93-21.67,31.96-31.9c8.94-8.28,18.49-15.94,28.14-23.41c9.85-7.62,20-14.87,30.28-21.89
			c6.65-4.54,13.72-8.49,20.73-12.49c8.46-4.83,16.98-9.58,25.63-14.05c6.39-3.3,12.99-6.19,19.57-9.11
			c7.86-3.48,15.72-6.98,23.72-10.1c6.03-2.35,12.29-4.13,18.45-6.14c6.82-2.23,13.64-4.46,20.48-6.63c2.42-0.77,4.87-1.44,7.35-2
			c3.41-0.77,6.87-1.31,10.28-2.08c6.92-1.57,13.78-3.42,20.73-4.82c7.04-1.41,14.14-2.55,21.26-3.53
			c6.17-0.86,12.39-1.42,18.6-1.97c3.42-0.3,6.89-0.19,10.31-0.51C474.11,41.34,475.34,40.51,476.59,40z M508.45,922.55
			c6.36-0.33,15.26-0.72,24.14-1.26c8.79-0.53,17.57-1.2,26.35-1.83c0.7-0.05,1.38-0.31,2.07-0.42c6.06-1.02,12.12-2.03,18.18-3.04
			c4.85-0.81,9.74-1.44,14.55-2.47c6.52-1.4,12.99-3.03,19.45-4.69c5.6-1.44,11.18-2.98,16.73-4.61c4.88-1.43,9.72-3.01,14.56-4.58
			c3.75-1.22,7.54-2.36,11.2-3.84c8.37-3.38,16.71-6.86,24.99-10.47c5.63-2.45,11.22-5.01,16.67-7.84
			c7.16-3.72,14.22-7.64,21.2-11.7c7.51-4.37,15.01-8.77,22.24-13.57c7.31-4.86,14.35-10.13,21.4-15.38
			c12.84-9.56,25.13-19.8,36.45-31.15c7.33-7.35,15-14.42,21.72-22.29c9.91-11.62,19.37-23.66,28.52-35.89
			c6.36-8.49,12.07-17.49,17.72-26.48c4.06-6.46,7.73-13.18,11.26-19.94c4.14-7.93,8.09-15.97,11.85-24.09
			c2.9-6.27,5.46-12.71,8.03-19.14c2.21-5.53,4.3-11.12,6.29-16.74c1.64-4.63,3.16-9.3,4.55-14.01c1.37-4.63,2.48-9.33,3.75-13.98
			c1.59-5.84,3.5-11.61,4.78-17.51c1.98-9.18,3.78-18.41,5.22-27.68c1.52-9.82,3.52-19.73,3.52-29.6c0-16.03,2.98-31.95,1.1-48.06
			c-0.98-8.38-0.57-16.92-0.8-25.39c-0.03-1.23-0.09-2.47-0.24-3.7c-1.04-8.29-2.05-16.58-3.19-24.85
			c-0.63-4.61-1.47-9.19-2.26-13.78c-0.6-3.46-1.16-6.94-1.94-10.36c-1.47-6.41-3.02-12.81-4.66-19.19
			c-1.46-5.69-2.99-11.36-4.66-16.99c-1.32-4.45-2.89-8.83-4.34-13.25c-1.36-4.17-2.47-8.43-4.09-12.5
			c-3.33-8.39-6.83-16.71-10.45-24.98c-2.53-5.78-5.23-11.51-8.14-17.12c-3.64-7.01-7.45-13.93-11.42-20.76
			c-4.41-7.58-8.73-15.26-13.73-22.45c-7.62-10.96-15.43-21.83-23.82-32.2c-7.73-9.55-16.12-18.59-24.62-27.48
			c-7.28-7.62-15-14.84-22.76-21.97c-5.04-4.64-10.38-8.99-15.83-13.15c-9.15-6.98-18.25-14.07-27.82-20.43
			c-10.37-6.89-21.2-13.1-31.96-19.38c-5.76-3.36-11.72-6.39-17.73-9.27c-7.35-3.51-14.82-6.78-22.29-10.02
			c-5.07-2.2-10.17-4.33-15.37-6.2c-6.02-2.16-12.15-4.04-18.26-5.95c-7.11-2.22-14.19-4.63-21.41-6.42
			c-9.11-2.26-18.35-4.04-27.55-5.92c-3.78-0.77-7.63-1.23-11.43-1.91c-5.79-1.03-11.53-2.49-17.36-3.09
			c-9.28-0.95-18.62-1.36-27.94-1.96c-2.73-0.18-5.47-0.2-8.2-0.31c-7.57-0.33-15.15-1.02-22.72-0.91
			c-10.04,0.15-20.08,0.91-30.12,1.42c-1.32,0.07-2.65,0.11-3.96,0.28c-7.5,0.96-15.01,1.92-22.5,2.96
			c-5.3,0.73-10.64,1.33-15.87,2.41c-9.71,2-19.38,4.19-29.02,6.51c-5.96,1.43-11.87,3.13-17.74,4.92
			c-6.04,1.84-12.04,3.83-17.98,5.96c-8.58,3.07-17.24,5.97-25.59,9.59c-9.81,4.25-19.43,8.96-28.91,13.9
			c-9.1,4.75-18.16,9.66-26.78,15.2c-11.22,7.21-22.15,14.89-32.93,22.76c-12.72,9.28-24.69,19.5-35.84,30.64
			c-7.71,7.7-15.63,15.24-22.85,23.38c-7.92,8.94-15.44,18.27-22.6,27.83c-6.94,9.27-13.34,18.96-19.68,28.66
			c-3.98,6.09-7.58,12.44-11.08,18.82c-4.01,7.3-7.82,14.72-11.53,22.18c-2.77,5.57-5.42,11.23-7.8,16.97
			c-2.99,7.2-5.73,14.51-8.43,21.83c-1.64,4.44-3.1,8.95-4.5,13.48c-1.37,4.44-2.54,8.95-3.86,13.41
			c-1.57,5.29-3.51,10.5-4.76,15.86c-1.63,7-2.75,14.13-4.05,21.2c-0.68,3.71-1.24,7.44-1.9,11.16c-1.04,5.88-2.5,11.71-3.09,17.63
			c-0.96,9.55-1.37,19.15-1.99,28.73c-0.15,2.38-0.18,4.76-0.3,7.14c-0.32,6.78-1.01,13.56-0.91,20.33
			c0.13,9.43,0.84,18.85,1.31,28.27c0.14,2.73,0.15,5.47,0.47,8.18c0.83,6.99,1.79,13.96,2.74,20.94
			c0.79,5.83,1.63,11.65,2.46,17.47c0.05,0.35,0.18,0.68,0.25,1.03c0.95,4.56,1.87,9.13,2.87,13.68c0.92,4.19,1.83,8.4,2.92,12.55
			c1.37,5.17,2.88,10.31,4.4,15.44c1.94,6.56,3.72,13.18,5.97,19.64c2.53,7.28,5.36,14.46,8.31,21.58c3.63,8.74,7.09,17.59,11.39,26
			c5.91,11.55,12.44,22.78,18.9,34.04c7.75,13.52,16.68,26.29,26.4,38.43c8.94,11.17,18.43,21.93,28.19,32.39
			c7.97,8.54,16.57,16.51,25.16,24.44c5.42,5,11.24,9.59,17.06,14.13c6.3,4.91,12.69,9.72,19.25,14.29
			c7.63,5.32,15.39,10.48,23.27,15.41c6.32,3.95,12.84,7.62,19.42,11.13c6.59,3.5,13.3,6.78,20.08,9.88
			c7.73,3.54,15.55,6.88,23.41,10.11c5.67,2.33,11.46,4.4,17.23,6.48c4.29,1.55,8.6,3.05,12.97,4.35c4.79,1.42,9.67,2.55,14.5,3.85
			c6.02,1.62,11.97,3.53,18.04,4.85c9.18,1.99,18.41,3.84,27.7,5.28c9.73,1.51,19.51,2.91,29.32,3.58
			C480.19,921.87,493.08,922,508.45,922.55z"/>
		<path d="M509.71,883.55c-10.93,0-21.88,0.39-32.78-0.13c-7.71-0.37-15.35-1.97-23.02-3.03c-0.61-0.08-1.23-0.15-1.84-0.24
			c-8.31-1.28-16.68-2.31-24.92-3.94c-7.48-1.48-14.9-3.35-22.2-5.52c-8.39-2.49-16.71-5.27-24.91-8.33
			c-11.08-4.13-22.22-8.22-32.96-13.13c-10.1-4.62-19.9-9.98-29.5-15.58c-10.54-6.15-21.02-12.49-30.94-19.58
			c-10.99-7.86-21.6-16.3-31.82-25.14c-9.74-8.43-19.2-17.3-27.99-26.71c-9.52-10.2-18.68-20.84-26.99-32.03
			c-9.46-12.74-18.29-26.02-26.51-39.61c-6.46-10.69-11.75-22.11-17.22-33.37c-3.67-7.57-6.92-15.37-10.01-23.2
			c-2.28-5.78-4.08-11.75-5.97-17.67c-2.22-6.92-4.41-13.85-6.41-20.84c-1.06-3.71-1.64-7.55-2.5-11.31
			c-0.95-4.19-1.97-8.36-2.96-12.53c-0.1-0.43-0.33-0.83-0.38-1.26c-0.68-5.21-1.35-10.43-2.01-15.64
			c-0.81-6.29-1.66-12.57-2.4-18.86c-0.47-3.93-1.04-7.88-1.11-11.83c-0.19-11.11,0.25-22.25-0.31-33.34
			c-0.63-12.44,1.28-24.64,2.47-36.9c0.75-7.67,1.85-15.35,3.41-22.89c1.89-9.19,4.34-18.26,6.71-27.35
			c1.8-6.86,3.62-13.73,5.86-20.46c2.46-7.39,5.33-14.65,8.18-21.9c2.48-6.28,5.03-12.54,7.83-18.68
			c2.95-6.45,6.06-12.84,9.42-19.08c3.69-6.88,7.52-13.72,11.69-20.31c5.35-8.46,11.09-16.69,16.7-24.98
			c8.59-12.7,18.47-24.41,28.83-35.64c8.62-9.34,17.71-18.31,27.12-26.85c8.78-7.96,18.03-15.45,27.5-22.58
			c8.56-6.45,17.52-12.39,26.6-18.08c8.92-5.59,18.05-10.87,27.37-15.77c8.05-4.23,16.45-7.82,24.77-11.51
			c6.57-2.91,13.19-5.74,19.93-8.24c6.32-2.34,12.82-4.22,19.25-6.24c4.93-1.55,9.87-3.05,14.83-4.48c2.53-0.73,5.11-1.3,7.68-1.87
			c4.03-0.9,8.06-1.77,12.1-2.61c4.8-0.99,9.61-1.93,14.41-2.9c0.35-0.07,0.69-0.18,1.03-0.22c6.73-0.76,13.53-1.17,20.19-2.33
			c10.6-1.85,21.31-1.03,31.92-1.87c5.37-0.43,10.56-0.69,15.9,0.08c3.72,0.54,7.6-0.08,11.37,0.26c10.6,0.97,21.19,2.16,31.78,3.27
			c0.61,0.06,1.22,0.16,1.83,0.25c8.4,1.31,16.84,2.36,25.17,4c7.3,1.44,14.55,3.29,21.69,5.4c8.48,2.51,16.87,5.35,25.2,8.31
			c8.58,3.05,17.15,6.19,25.54,9.74c6.93,2.94,13.66,6.38,20.32,9.9c9.07,4.79,18.08,9.71,26.94,14.88
			c5.76,3.36,11.24,7.22,16.77,10.95c15.85,10.68,30.74,22.61,44.68,35.64c8.78,8.2,17.26,16.78,25.29,25.7
			c7.93,8.81,15.44,18.03,22.55,27.51c6.48,8.64,12.42,17.71,18.16,26.87c5.5,8.77,10.71,17.74,15.54,26.89
			c4.21,7.96,7.77,16.27,11.5,24.48c2.32,5.11,4.52,10.29,6.57,15.52c1.53,3.91,2.76,7.94,4.11,11.92c1.66,4.9,3.42,9.77,4.92,14.72
			c1.47,4.86,2.71,9.79,3.99,14.71c1.15,4.41,2.24,8.83,3.3,13.26c0.71,2.99,1.42,5.98,1.91,9.01c0.8,4.93,1.48,9.88,2.09,14.83
			c0.82,6.64,1.69,13.27,2.26,19.93c0.66,7.72,0.97,15.46,1.53,23.19c0.26,3.68,0.73,7.34,1.1,11.02c0.06,0.61,0.24,1.28,0.08,1.84
			c-2.13,7.63-0.66,15.47-1.38,23.17c-0.86,9.2-2.1,18.35-3.18,27.53c-0.07,0.61-0.18,1.22-0.28,1.83
			c-1.3,8.4-2.23,16.87-3.99,25.18c-1.75,8.3-4.24,16.46-6.55,24.64c-1.86,6.58-3.65,13.19-5.96,19.62
			c-3.13,8.74-6.53,17.39-10.16,25.93c-3.57,8.37-7.26,16.72-11.47,24.78c-4.67,8.94-9.82,17.65-15.07,26.27
			c-4.16,6.82-8.66,13.45-13.25,19.99c-11.73,16.71-24.46,32.63-39.14,46.87c-10.39,10.09-20.65,20.4-31.83,29.56
			c-11.53,9.45-23.88,17.95-36.26,26.29c-9.23,6.22-18.91,11.84-28.69,17.18c-7.9,4.32-16.22,7.9-24.42,11.64
			c-6.3,2.88-12.65,5.68-19.11,8.2c-5.71,2.23-11.56,4.09-17.38,6.01c-5.16,1.69-10.32,3.39-15.56,4.81
			c-5.84,1.58-11.77,2.82-17.66,4.23c-4.01,0.96-8.01,1.94-12.01,2.92c-0.43,0.1-0.83,0.33-1.26,0.38
			c-5.13,0.68-10.25,1.34-15.38,2.01c-7.24,0.94-14.47,2.03-21.73,2.78c-5.16,0.53-10.37,0.69-15.56,0.86
			c-4.32,0.13-8.65,0.03-12.97,0.03C509.71,883.69,509.71,883.62,509.71,883.55z M238.63,501.07c-1.74-0.18-2.83-0.39-3.93-0.39
			c-22.95-0.03-45.9-0.04-68.85-0.04c-5.59,0-5.78,0.03-5.54,5.5c0.42,9.76,1.01,19.52,1.71,29.27c0.45,6.3,1.22,12.57,1.86,18.86
			c0.04,0.35,0.18,0.68,0.26,1.03c1.03,4.99,2.07,9.97,3.08,14.96c0.83,4.13,1.46,8.3,2.47,12.38c1.41,5.68,3.01,11.32,4.68,16.94
			c1.94,6.55,3.82,13.13,6.14,19.55c2.5,6.91,5.32,13.72,8.29,20.45c3.61,8.19,7.02,16.53,11.39,24.31
			c6.79,12.08,13.89,24.05,21.65,35.53c9.99,14.78,21.45,28.46,33.85,41.35c12.64,13.14,26.22,25.18,40.8,36.09
			c6.89,5.16,13.88,10.24,21.18,14.78c9.02,5.61,18.31,10.79,27.66,15.83c6.25,3.37,12.73,6.37,19.25,9.2
			c7.15,3.1,14.44,5.89,21.72,8.67c4.09,1.56,8.25,2.95,12.45,4.19c5.13,1.51,10.32,2.82,15.49,4.16c4.31,1.12,8.63,2.21,12.96,3.21
			c3.59,0.83,7.19,1.61,10.82,2.23c6.74,1.16,13.49,2.18,20.24,3.26c1.82,0.29,3.68,0.4,5.45,0.89c1.66,0.46,2.64-0.16,3.14-1.54
			c0.38-1.05,0.53-2.24,0.53-3.36c0.04-18.8,0.04-37.6,0.02-56.4c0-0.98-0.29-1.96-0.51-3.3c-1.09,0.57-1.89,0.79-2.43,1.29
			c-2.05,1.92-4,3.94-6,5.9c-5.88,5.78-11.43,11.97-17.75,17.23c-7.31,6.08-14.32,6.48-22.59,1.28
			c-10.45-6.57-10.9-21.87-3.17-29.44c10.81-10.59,21.42-21.37,32.08-32.11c8.05-8.12,16.03-16.3,24.07-24.44
			c2.65-2.69,5.43-5,9.22-6.29c6.77-2.3,12.99-1.24,17.95,3.34c8.83,8.15,17.06,16.95,25.56,25.46
			c10.54,10.56,20.95,21.26,31.68,31.62c8.68,8.38,9.54,16.8,5.29,24.97c-5.05,9.73-18.98,14.65-28.76,5.83
			c-6.79-6.12-13.06-12.81-19.57-19.23c-1.95-1.93-3.92-3.83-5.88-5.75c-0.25,0.11-0.49,0.22-0.74,0.33
			c-0.09,1.36-0.25,2.72-0.25,4.08c-0.01,19.6,0.01,39.19,0.02,58.79c0,0.71-0.19,1.55,0.12,2.08c0.46,0.79,1.29,1.94,1.96,1.94
			c6.7,0.03,13.43,0.16,20.1-0.34c8.92-0.68,17.81-1.81,26.7-2.91c5.48-0.68,10.93-1.61,16.38-2.5c3.03-0.5,6.06-1.04,9.05-1.77
			c6.03-1.47,12.03-3.04,18.03-4.63c5.17-1.37,10.38-2.62,15.46-4.28c6.24-2.04,12.4-4.38,18.53-6.74
			c6.3-2.42,12.65-4.76,18.75-7.62c7.87-3.69,15.63-7.65,23.22-11.89c8.65-4.84,17.29-9.78,25.52-15.3
			c8.53-5.72,16.69-12.02,24.78-18.35c11.84-9.26,22.7-19.63,33.07-30.52c13.12-13.79,25.04-28.61,35.41-44.52
			c7.8-11.97,14.55-24.65,21.44-37.19c3.45-6.29,6.31-12.93,9.16-19.53c2.63-6.12,4.95-12.38,7.27-18.62
			c1.46-3.94,2.78-7.94,3.98-11.97c1.5-5.04,2.81-10.14,4.19-15.21c0.98-3.62,2.02-7.23,2.86-10.89c1.13-4.87,2.15-9.76,3.12-14.66
			c0.89-4.48,1.94-8.95,2.43-13.47c0.88-8.21,1.36-16.45,2.06-24.68c0.1-1.13,0.41-2.26,0.71-3.36c0.93-3.44,0.3-4.36-3.3-4.36
			c-26.13-0.02-52.25-0.02-78.38,0.01c-0.99,0-1.98,0.26-3.57,0.49c1.01,1.25,1.59,2.1,2.3,2.81c6.14,6.15,12.23,12.34,18.48,18.37
			c7.06,6.83,10.37,14.45,6.2,24.17c-4.14,9.67-17.03,14.58-26.64,8.97c-2.6-1.52-4.79-3.82-6.96-5.98
			c-10.18-10.1-20.28-20.28-30.42-30.42c-7.03-7.03-13.96-14.18-21.19-21.01c-3.96-3.73-7.39-7.37-8.95-12.95
			c-1.42-5.05-0.13-9.31,2.04-13.28c1.71-3.13,4.64-5.66,7.22-8.25c17.44-17.52,34.99-34.93,52.39-52.5
			c8.93-9.03,18.36-9.11,26.54-3.19c9.12,6.61,10.95,19.3,2.88,28.11c-6.81,7.44-14.14,14.39-21.22,21.58
			c-0.81,0.83-1.52,1.77-2.76,3.23c2.04,0.17,3.3,0.36,4.56,0.36c17.92,0.02,35.84,0.01,53.76,0.01c8.03,0,16.06,0.03,24.1-0.02
			c3.15-0.02,3.65-0.85,3.12-3.94c-0.48-2.77-0.77-5.58-1.03-8.38c-0.68-7.17-1.3-14.34-1.95-21.51c-0.04-0.43-0.22-0.85-0.31-1.28
			c-1.05-5.16-2.09-10.32-3.14-15.49c-0.8-3.96-1.44-7.95-2.42-11.86c-1.44-5.76-3.05-11.48-4.73-17.18
			c-1.97-6.64-3.88-13.3-6.23-19.81c-2.44-6.75-5.23-13.38-8.13-19.95c-3.62-8.19-7.03-16.52-11.41-24.3
			c-6.49-11.55-13.63-22.73-20.7-33.94c-8.33-13.2-18.36-25.13-28.84-36.61c-12.14-13.3-24.99-25.95-39.6-36.62
			c-9.99-7.3-19.89-14.76-30.28-21.45c-9.29-5.98-19.11-11.15-28.87-16.36c-5.79-3.09-11.89-5.64-17.9-8.3
			c-5.21-2.3-10.45-4.55-15.77-6.59c-5.4-2.06-10.87-3.99-16.39-5.69c-5.11-1.57-10.33-2.77-15.5-4.14
			c-6-1.59-11.96-3.38-18.01-4.73c-6.59-1.47-13.24-2.81-19.93-3.7c-7.21-0.96-14.51-1.32-21.76-1.99c-2.63-0.24-5.26-0.52-7.85-1
			c-3.26-0.61-4.09-0.11-4.1,3.17c-0.03,19.77-0.02,39.54,0.01,59.32c0,0.96,0.33,1.91,0.61,3.44c1.27-1.06,2.12-1.66,2.84-2.38
			c6.17-6.16,12.22-12.44,18.5-18.48c5.92-5.69,12.29-9.57,21.29-6.79c9.3,2.87,14.09,11.07,13.93,19.18
			c-0.1,4.87-2.09,9.46-5.59,13.07c-5.45,5.62-11,11.14-16.54,16.68c-11.14,11.13-22.22,22.32-33.49,33.32
			c-4.7,4.59-8.42,10.19-15.34,12.42c-7.09,2.29-13.3,0.9-18.36-3.65c-8.17-7.35-15.67-15.43-23.44-23.22
			c-11.5-11.52-23.03-23.02-34.47-34.61c-7.18-7.28-8.85-16.3-3.38-25.42c3.42-5.7,12.04-9.61,17.89-8.75
			c5.35,0.79,9.93,3.38,13.76,7.27c6.3,6.4,12.65,12.76,18.99,19.11c0.7,0.7,1.55,1.24,2.81,2.24c0.23-1.54,0.48-2.45,0.49-3.36
			c0.04-3.71,0.01-7.41,0.01-11.12c0-15.98,0.02-31.95,0-47.93c0-3.43-0.72-3.97-3.53-3.64c-8.72,1.03-17.47,1.83-26.19,2.91
			c-5.4,0.66-10.76,1.6-16.12,2.52c-3.2,0.55-6.38,1.23-9.54,1.95c-3.84,0.88-7.65,1.89-11.48,2.82c-3.23,0.78-6.5,1.39-9.68,2.33
			c-5.13,1.51-10.19,3.23-15.28,4.87c-3.92,1.27-7.93,2.33-11.74,3.88c-8.03,3.27-16.06,6.58-23.9,10.27
			c-8.9,4.19-17.77,8.49-26.31,13.35c-8.69,4.95-17.18,10.33-25.38,16.06c-14.56,10.18-28.27,21.42-41.12,33.74
			c-13.17,12.63-25.21,26.22-36.16,40.77c-5.18,6.88-10.18,13.9-14.85,21.13c-4.48,6.93-8.62,14.09-12.54,21.35
			c-3.93,7.26-7.66,14.66-11.02,22.2c-3.71,8.32-7,16.83-10.25,25.34c-1.72,4.49-3.05,9.13-4.42,13.74
			c-1.43,4.79-2.73,9.62-4.04,14.44c-0.98,3.62-1.99,7.24-2.82,10.89c-0.97,4.27-1.84,8.57-2.6,12.88
			c-1.13,6.39-2.12,12.8-3.16,19.2c-0.32,1.99-0.45,4.02-0.94,5.97c-0.56,2.17,0.48,3.22,2.26,3.76c0.99,0.3,2.1,0.26,3.15,0.26
			c7.94,0.02,15.89,0.02,23.83,0.02c14.03-0.01,28.07,0,42.1-0.05c3.65-0.01,4.41-1.39,2.46-4.35c-3.77-5.72-7.76-11.3-11.39-17.1
			c-2.64-4.22-5.7-8.46-7.09-13.13c-2.14-7.18,1.82-15.95,8.2-20.18c7.02-4.66,20.57-3.82,25.91,4.24c1.16,1.75,2.38,3.47,3.55,5.22
			c5.99,8.98,11.96,17.97,17.98,26.93c5.38,8.02,10.72,16.06,16.24,23.99c2.39,3.43,4.59,6.9,4.97,11.12
			c0.5,5.55-1.27,10.35-4.66,14.9c-4.98,6.68-9.44,13.76-14.07,20.71c-5.8,8.69-11.53,17.43-17.34,26.13
			c-2.59,3.87-4.96,7.95-8,11.44c-4.26,4.89-13.11,7.75-21.32,4.3c-10.36-4.35-15.57-17.13-9.3-27.21
			c4.73-7.59,9.9-14.91,14.84-22.37C236.15,505.3,237.17,503.47,238.63,501.07z"/>
		<path d="M505.34,673.28c-44.31,0-88.62-0.04-132.93,0.05c-5.8,0.01-10.78-1.75-14.85-5.67c-2.86-2.75-5.09-6.03-5.1-10.36
			c-0.02-6.53-0.3-13.06-0.28-19.58c0.07-17.38,0.15-34.77,0.44-52.15c0.12-7.07,2.01-13.86,4.79-20.34
			c2.41-5.63,4.69-11.38,7.68-16.7c6.86-12.22,16.35-22.12,27.67-30.4c8.94-6.54,17.63-13.44,26.43-20.17
			c1.89-1.44,3.75-2.91,5.69-4.28c1.57-1.12,1.41-2.33,0.68-3.9c-3.54-7.53-7.36-14.95-10.38-22.68c-6.22-15.9-6.7-32.61-4.57-49.21
			c1.55-12.08,5.62-23.61,11.34-34.57c6.78-12.99,15.82-24.1,26.73-33.61c7.27-6.34,15.5-11.39,24.52-15.21
			c13.35-5.65,27.17-8.05,41.46-6.33c7.77,0.93,15.37,3.07,22.73,6.2c8.94,3.79,17.05,8.79,24.37,14.95
			c8.28,6.96,15.77,14.8,21.27,24.25c3.48,5.98,7.01,11.96,9.95,18.21c2,4.24,3.11,8.91,4.45,13.43c1.02,3.44,1.81,6.95,2.61,10.45
			c0.39,1.71,0.78,3.47,0.8,5.21c0.08,8.03,0.42,16.08-0.1,24.08c-0.34,5.29-2.02,10.49-3.02,15.75c-1.67,8.84-6.09,16.6-9.67,24.68
			c-0.6,1.36-1.39,2.67-2.31,3.83c-1.49,1.89-1.16,3.26,0.72,4.64c5.11,3.74,10.15,7.57,15.23,11.34c6.28,4.67,12.69,9.17,18.84,14
			c5.31,4.17,10.68,8.37,15.41,13.16c7.42,7.51,12.69,16.61,16.63,26.36c1.86,4.6,2.63,9.62,4.31,14.3
			c2.3,6.43,1.71,13.08,1.79,19.63c0.24,19.68,0.16,39.37,0.07,59.05c-0.02,3.73,0.12,7.49-1.82,11.06
			c-3.67,6.75-9.32,10.32-16.79,10.44c-14.38,0.25-28.77,0.11-43.16,0.11c-30.54,0.01-61.08,0-91.62,0
			C505.34,673.31,505.34,673.29,505.34,673.28z M505.17,635.12c36.36,0,72.72,0,109.08,0c6.34,0,6.35,0,6.35-6.48
			c0-10.59,0.03-21.18-0.01-31.77c-0.03-6.24,0.14-12.43-1.48-18.64c-1.9-7.27-4.68-13.93-10.4-18.83
			c-6.46-5.54-13.27-10.67-20.04-15.83c-9.28-7.09-18.67-14.03-27.99-21.07c-2.09-1.58-4.2-1.39-6.11,0.04
			c-7.61,5.67-16.03,9.63-25.04,12.54c-6.06,1.96-12.08,3.61-18.53,3.41c-5.55-0.18-11.14,0.17-16.67-0.27
			c-3.89-0.31-7.8-1.3-11.54-2.47c-4.09-1.28-8.11-2.88-11.95-4.78c-4.7-2.33-9.3-4.93-13.72-7.76c-2.85-1.83-4.66-2.07-7.35,0
			c-8.91,6.86-17.93,13.58-26.75,20.54c-6.54,5.16-13.21,10.25-19.19,16.02c-9.04,8.71-13.03,19.96-13.4,32.3
			c-0.38,12.61-0.1,25.24-0.1,37.86c0,5.02,0.19,5.2,5.23,5.2C432.1,635.13,468.64,635.12,505.17,635.12z M447.45,433.82
			c0.66,4.86,1.1,10.11,2.15,15.24c1.14,5.56,2.37,11.18,4.42,16.44c2.85,7.31,7.33,13.66,12.91,19.34
			c9.43,9.61,21.05,14.05,34.05,15.41c8.53,0.89,16.79-0.72,24.84-3.63c10.39-3.76,18.5-10.52,24.59-19.49
			c3.16-4.66,5.34-10.03,7.63-15.22c3.1-7.05,4.38-14.64,4.72-22.25c0.3-6.82,0.19-13.62-1.04-20.51
			c-1.23-6.9-2.96-13.44-5.76-19.81c-4.47-10.18-11.21-18.33-20.5-24.48c-5.44-3.6-11.35-6.45-17.65-7.22
			c-6.5-0.79-12.97-1.82-19.87-0.8c-10.02,1.5-18.83,4.93-26.65,10.95c-11.74,9.04-17.93,21.7-21.35,35.69
			C448.38,419.93,448.28,426.71,447.45,433.82z"/>
	</g>
</g>
</svg>
