<?xml version="1.0" encoding="utf-8"?>
<!-- Generator: Adobe Illustrator 23.0.6, SVG Export Plug-In . SVG Version: 6.00 Build 0)  -->
<svg version="1.1" id="Lager_1" xmlns="http://www.w3.org/2000/svg" xmlns:xlink="http://www.w3.org/1999/xlink" x="0px" y="0px"
	 viewBox="0 0 1000 1000" style="enable-background:new 0 0 1000 1000;" xml:space="preserve">
<g id="sqWxnd.tif">
	<g>
		<path d="M342.08,604.85c0-2.61-0.38-5.28,0.09-7.8c0.72-3.93,2.04-7.75,3.07-11.63c0.82-3.11,2.02-6.21,2.28-9.37
			c0.39-4.72,0.45-9.53-0.03-14.23c-0.34-3.31-1.65-6.56-2.84-9.73c-1.19-3.16-2.59-6.26-4.21-9.22c-3.27-5.98-7.69-11-13.3-14.92
			c-2.41-1.68-4.79-3.42-7.3-4.92c-1.55-0.92-3.29-1.57-5.02-2.11c-2.9-0.9-5.82-1.99-8.8-2.33c-7.55-0.86-15.2-0.97-22.7-2.1
			c-4.63-0.7-9.25-2.31-13.55-4.22c-6.96-3.1-13.01-7.75-17.51-13.91c-3.32-4.55-6.31-9.47-8.61-14.6
			c-3.31-7.4-5.01-15.35-3.94-23.5c0.61-4.65,1.96-9.23,3.34-13.74c0.91-2.96,2.34-5.79,3.76-8.56c3.03-5.91,7.37-10.75,12.68-14.68
			c8.22-6.1,15.9-12.8,20.4-22.16c2.27-4.73,4.72-9.64,4.58-15.24c-0.03-1.35,0.75-2.71,0.78-4.08c0.07-3-0.05-6.01-0.18-9.01
			c-0.03-0.72-0.56-1.43-0.55-2.14c0.08-4.92-1.81-9.2-3.66-13.66c-3.02-7.31-7.49-13.35-13.48-18.35
			c-3.74-3.12-7.88-5.83-11.31-9.27c-3.42-3.43-6.42-7.36-9.13-11.39c-2.02-3.01-3.28-6.53-4.87-9.83
			c-0.16-0.33-0.35-0.67-0.43-1.03c-1.56-7.35-3.42-14.86-1.73-22.25c1.74-7.62,3.8-15.19,8.35-21.99
			c4.41-6.59,9.6-12.14,16.11-16.4c5.36-3.51,11.3-5.56,17.67-7.11c7.14-1.74,14.26-0.52,21.26-1.74c3.68-0.64,7.36-1.68,10.82-3.08
			c3.95-1.6,7.94-3.42,11.41-5.84c5.34-3.72,10.23-8.12,13.48-13.91c2.35-4.19,5.06-8.34,6.42-12.87c2.59-8.56,3.34-17.3,1.03-26.27
			c-1.97-7.64-4.93-15.14-4.92-23.2c0.01-5.63,0.46-11.14,2.06-16.7c1.72-5.97,4.43-11.34,8.03-16.11
			c3.78-5.01,8.03-9.83,13.85-12.8c4.47-2.28,8.75-5,13.39-6.86c3.25-1.31,6.92-1.8,10.45-2.11c3.88-0.34,7.87-0.47,11.71,0.06
			c3.82,0.53,7.54,1.87,11.23,3.1c2.79,0.93,5.63,1.96,8.13,3.45c4.73,2.83,9.17,6.16,13.89,9.01c2.15,1.3,4.65,2.12,7.08,2.84
			c4.12,1.22,8.27,2.55,12.5,3.15c3.3,0.47,6.75-0.05,10.13-0.25c1.18-0.07,2.33-0.6,3.52-0.71c5.58-0.49,10.56-2.64,15.47-5.2
			c7.95-4.14,14.28-10.01,19.14-17.43c1.76-2.68,3.22-5.64,4.31-8.65c3.57-9.83,7.3-19.58,14.86-27.17
			c4.71-4.73,10.36-8.08,16.36-11.11c6.18-3.12,12.83-3.85,19.31-4.37c5.73-0.45,11.66,1.27,17.47,2.26
			c6.37,1.09,11.92,4.24,17.05,7.96c7.03,5.09,12.23,11.9,16.15,19.58c1.68,3.29,2.43,7.05,3.89,10.47
			c1.67,3.92,3.27,7.95,5.6,11.47c2.55,3.87,5.55,7.59,8.98,10.69c4.9,4.42,10.58,7.72,17.06,9.67c6.03,1.81,12.01,4.04,18.35,3.32
			c4.88-0.56,9.71-1.87,14.46-3.23c3.3-0.95,6.5-2.38,9.58-3.91c2.61-1.3,5.23-2.79,7.42-4.68c3.68-3.19,8.19-4.66,12.35-6.86
			c7.39-3.91,15.31-4.03,23.22-3.43c4.28,0.32,8.59,1.61,12.65,3.1c4.27,1.57,8.42,3.63,12.33,5.96
			c7.1,4.25,12.35,10.44,16.76,17.36c3.24,5.08,4.45,10.89,6.24,16.58c2.62,8.31,0.63,16.03-0.89,23.88
			c-1.13,5.84-3.4,11.46-4.48,17.3c-0.6,3.25,0.15,6.75,0.37,10.13c0.05,0.82,0.51,1.61,0.6,2.43c1.49,13.22,7.99,23.7,18.21,31.77
			c4.11,3.25,9.04,5.56,13.8,7.86c6.87,3.32,14.32,3.7,21.85,3.86c5.22,0.11,10.63,0.5,15.58,2c9.26,2.8,17.39,7.88,23.81,15.26
			c4.3,4.95,7.42,10.57,10.05,16.7c4.17,9.74,4.39,19.75,2.9,29.69c-1.03,6.88-3.9,13.47-8.26,19.36
			c-3.17,4.28-6.6,8.14-10.69,11.46c-2.21,1.8-4.6,3.36-6.83,5.13c-5.19,4.11-9.45,9.11-12.62,14.87
			c-1.92,3.49-2.83,7.51-4.35,11.23c-3.18,7.74-1.43,15.79-1.49,23.7c-0.02,2.37,1.21,4.79,2.04,7.12
			c3.36,9.46,8.87,17.53,16.86,23.56c6.31,4.76,12.48,9.58,17.05,16.05c2.05,2.89,3.37,6.29,5.06,9.45c4.91,9.22,4.38,19.18,3.42,29
			c-0.44,4.55-2.26,9.11-4.15,13.36c-3.14,7.04-7.6,13.26-13.52,18.33c-4.34,3.72-8.99,6.82-14.4,9
			c-5.14,2.07-10.22,3.26-15.76,3.44c-6.28,0.21-12.68,0.57-18.78,1.94c-5.29,1.19-10.4,3.56-15.31,6
			c-6.74,3.34-11.87,8.87-16.19,14.8c-2.91,4-4.96,8.85-6.44,13.61c-1.68,5.42-3.05,11.15-3.14,16.77
			c-0.08,4.81,1.81,9.65,2.9,14.46c0.67,2.93,1.54,5.81,2.21,8.74c1.17,5.05,2.76,10.12,1.83,15.35c-0.78,4.41-1.97,8.76-3.32,13.03
			c-1.02,3.21-2.34,6.37-3.94,9.32c-4.61,8.5-11.47,14.94-19.68,19.83c-3.39,2.02-7.35,3.09-11.07,4.54
			c-5.55,2.16-11.37,3.89-17.24,3.01c-6.28-0.95-12.54-1.94-18.63-4.59c-6.73-2.94-12.04-7.7-18.21-11.25
			c-3.44-1.98-7.4-3.07-11.13-4.54c-8.29-3.27-16.9-1.59-25.37-1.42c-2.68,0.05-5.38,1.64-7.97,2.76c-3,1.3-6,2.66-8.79,4.35
			c-6.23,3.78-11.27,8.9-15.24,14.99c-3.59,5.5-5.55,11.71-7.75,17.87c-1.8,5.03-5.06,9.56-7.86,14.2
			c-4,6.63-10.34,10.74-16.85,14.37c-3.54,1.98-7.82,2.59-11.55,4.29c-5.18,2.37-10.57,1.52-15.9,1.79
			c-5.88,0.29-11.22-1.64-16.7-3.4c-5.09-1.64-9.58-4.16-13.74-7.36c-7.06-5.42-12.41-12.31-16.2-20.31
			c-1.64-3.45-2.65-7.21-3.85-10.86c-1.8-5.48-4.98-10.12-8.41-14.69c-3.92-5.23-8.93-9.25-14.56-12.11
			c-7-3.56-14.29-6.32-22.56-6.33c-8.3-0.01-16.25,1.01-23.8,4.29c-3.58,1.55-6.94,3.76-10.12,6.06
			c-5.22,3.78-10.45,7.26-16.84,8.99c-5.8,1.57-11.54,3.59-17.56,2.99c-4.62-0.46-9.13-1.95-13.69-3
			c-7.09-1.63-13.05-5.47-18.52-10.01c-3.09-2.56-6.02-5.52-8.33-8.78c-3.06-4.31-6.24-8.83-7.93-13.75
			c-1.94-5.65-2.31-11.84-3.37-17.8C341.45,604.94,341.77,604.89,342.08,604.85z M559.68,590.68c9.79-0.2,19.64,0.78,29.37-1.52
			c5.16-1.22,10.53-1.57,15.8-2.32c0.09-0.01,0.18-0.04,0.27-0.06c5.7-1.66,11.41-3.26,17.09-5c4.81-1.47,9.71-2.76,14.32-4.72
			c7.5-3.19,14.93-6.62,22.13-10.42c7.05-3.72,14.09-7.61,20.6-12.18c7.89-5.54,15.52-11.54,22.71-17.96
			c6.86-6.13,13.23-12.84,19.39-19.68c4.67-5.18,8.76-10.89,12.92-16.51c3.17-4.29,6.36-8.62,8.96-13.26
			c3.69-6.55,7.02-13.32,10.17-20.15c3.18-6.88,6.21-13.84,8.82-20.95c2.21-6.02,3.95-12.23,5.48-18.46
			c1.54-6.25,3.04-12.58,3.71-18.97c1.06-9.96,1.47-20,2.02-30.01c0.2-3.62,0.05-7.26,0-10.89c-0.03-2.14-0.04-4.29-0.33-6.4
			c-1.1-8.05-2.3-16.09-3.5-24.13c-0.23-1.53-0.63-3.04-1-4.55c-0.82-3.4-1.62-6.81-2.49-10.2c-0.94-3.64-1.81-7.31-2.97-10.89
			c-1.36-4.2-2.91-8.34-4.53-12.44c-2.03-5.13-4.04-10.27-6.4-15.25c-1.96-4.14-4.29-8.12-6.68-12.03
			c-4.49-7.35-8.93-14.75-13.8-21.84c-3.16-4.59-6.84-8.88-10.65-12.96c-6.33-6.75-12.69-13.51-19.53-19.71
			c-6.39-5.79-13.38-10.92-20.21-16.22c-2.59-2.01-5.38-3.77-8.17-5.5c-3.73-2.31-7.48-4.61-11.35-6.66
			c-4.36-2.32-8.83-4.45-13.32-6.51c-3.4-1.56-6.91-2.89-10.37-4.3c-3.87-1.58-7.66-3.4-11.64-4.63c-5.69-1.76-11.51-3.13-17.3-4.57
			c-2.77-0.69-5.58-1.23-8.39-1.74c-6.34-1.14-12.65-2.48-19.04-3.23c-6.9-0.81-13.87-1.05-20.81-1.5
			c-1.01-0.07-2.05,0.01-3.06,0.13c-2.01,0.23-4.03,0.84-6.02,0.76c-10.46-0.44-20.72,1.39-31.04,2.53
			c-0.46,0.05-0.9,0.24-1.35,0.34c-4.39,1.05-8.78,2.08-13.17,3.14c-3.22,0.78-6.49,1.41-9.63,2.44c-4.57,1.5-9.05,3.28-13.56,4.98
			c-1.54,0.58-3.03,1.26-4.55,1.88c-3.54,1.44-7.21,2.64-10.61,4.35c-5.48,2.76-10.9,5.69-16.15,8.85
			c-6.52,3.92-13.11,7.81-19.2,12.34c-7.45,5.55-14.77,11.38-21.49,17.78c-6.94,6.61-13.45,13.75-19.48,21.19
			c-5.42,6.69-10.07,14.03-14.78,21.26c-2.96,4.54-5.52,9.34-8.03,14.15c-2.29,4.39-4.42,8.87-6.35,13.43
			c-2.4,5.66-4.73,11.38-6.71,17.2c-1.65,4.85-2.84,9.87-4.07,14.85c-1.75,7.05-3.6,14.09-4.94,21.22
			c-1.02,5.45-1.85,11.04-1.84,16.57c0.02,12.06-1.26,24.14,0.99,36.18c1.32,7.07,1.85,14.29,2.76,21.44
			c0.08,0.63,0.31,1.25,0.48,1.87c0.96,3.64,1.91,7.29,2.9,10.93c0.96,3.53,1.84,7.09,2.99,10.55c1.35,4.08,2.89,8.1,4.48,12.1
			c2.07,5.19,4.12,10.39,6.48,15.45c1.95,4.17,4.21,8.21,6.58,12.16c3.72,6.2,7.52,12.36,11.55,18.36c3.01,4.5,6.13,8.99,9.72,13.02
			c10.72,12.05,21.82,23.74,34.85,33.37c6.28,4.64,12.63,9.19,19.22,13.36c4.86,3.08,10.09,5.6,15.27,8.13
			c5.43,2.65,10.96,5.12,16.53,7.46c3.53,1.49,7.21,2.65,10.85,3.87c5.18,1.73,10.33,3.56,15.59,5.01c5.47,1.5,11.02,2.83,16.6,3.81
			c5.27,0.92,10.62,1.58,15.97,1.81C545.7,590.91,552.7,590.68,559.68,590.68z"/>
		<path d="M324.39,661.9c5.18,4.85,9.7,9.61,14.78,13.66c4.2,3.35,8.98,6,13.67,8.68c3.39,1.93,6.96,3.63,10.61,5
			c3.15,1.19,6.6,1.58,9.8,2.67c8.28,2.84,16.84,2.19,25.33,2.23c3.81,0.02,7.67-0.11,11.41-0.76c3.39-0.59,6.68-1.9,9.95-3.04
			c3.7-1.29,7.5-2.43,10.96-4.21c4.88-2.51,9.44-5.63,14.23-8.31c3.3-1.85,5.77-4.8,10.06-5.38c7.46-1.01,14.03,2.72,16.72,9.83
			c3.26,8.61,6.76,17.07,12.06,24.84c6.03,8.84,13.3,16.26,21.36,23.09c2.44,2.06,2.59,4.13,1.18,6.98
			c-1.83,3.71-3.37,7.55-5.08,11.32c-2.27,5.01-4.64,9.98-6.85,15.02c-1.58,3.6-2.94,7.3-4.48,10.93
			c-1.42,3.36-2.95,6.68-4.41,10.03c-1.67,3.84-3.3,7.69-4.99,11.52c-1.99,4.52-4.01,9.02-6.04,13.53
			c-1.61,3.58-3.25,7.15-4.86,10.74c-2.4,5.32-4.83,10.63-7.16,15.99c-1.42,3.27-2.59,6.64-4.02,9.9
			c-2.93,6.7-6.01,13.34-8.91,20.06c-2.14,4.96-4.01,10.03-6.16,14.98c-2.08,4.79-4.4,9.46-6.53,14.22
			c-2.18,4.86-4.25,9.76-6.39,14.63c-2.32,5.27-4.71,10.52-7,15.8c-1.57,3.62-2.97,7.32-4.53,10.94c-1.34,3.1-2.82,6.14-4.2,9.22
			c-1.69,3.76-3.32,7.54-5.02,11.29c-2.3,5.07-4.7,10.09-6.93,15.19c-1.54,3.51-2.99,7.08-4.23,10.71c-0.76,2.22-1.86,2.29-3.06,0.7
			c-1.71-2.26-3.13-4.74-4.63-7.16c-2.96-4.77-5.93-9.54-8.81-14.35c-2.25-3.76-4.33-7.63-6.59-11.38
			c-2.07-3.45-4.31-6.81-6.43-10.23c-2.75-4.44-5.48-8.91-8.19-13.37c-1.52-2.5-3.01-5.02-4.5-7.54c-4.2-7.07-8.39-14.14-12.6-21.21
			c-2.58-4.33-5.13-8.68-7.83-12.92c-0.47-0.73-1.71-1.47-2.53-1.39c-2.83,0.26-5.62,0.87-8.43,1.38c-0.45,0.08-0.86,0.38-1.31,0.46
			c-4.45,0.73-8.93,1.32-13.35,2.18c-4.41,0.86-8.77,1.98-13.15,3c-0.36,0.08-0.69,0.3-1.05,0.37c-4.53,0.82-9.08,1.55-13.6,2.46
			c-4.14,0.84-8.25,1.87-12.37,2.82c-0.36,0.08-0.7,0.28-1.06,0.35c-4.34,0.78-8.71,1.46-13.03,2.32c-4.78,0.95-9.53,2.06-14.29,3.1
			c-0.18,0.04-0.35,0.13-0.53,0.16c-4.71,0.82-9.43,1.6-14.13,2.46c-2.35,0.43-4.65,1.22-7.02,1.48c-2.83,0.31-3.22-0.61-2.09-3.17
			c2.86-6.45,5.52-12.99,8.34-19.46c1.42-3.25,3.1-6.4,4.55-9.64c1.67-3.76,3.18-7.59,4.83-11.36c1.58-3.61,3.28-7.16,4.88-10.76
			c1.37-3.1,2.67-6.23,4.01-9.34c1.63-3.78,3.25-7.55,4.91-11.32c1.56-3.53,3.17-7.04,4.76-10.56c2.4-5.32,4.84-10.63,7.17-15.98
			c1.46-3.36,2.64-6.83,4.1-10.19c2.28-5.28,4.75-10.47,7.03-15.75c2.13-4.95,4.07-9.99,6.19-14.95c1.32-3.09,2.85-6.08,4.23-9.15
			c1.66-3.66,3.23-7.36,4.89-11.03c2.33-5.15,4.76-10.25,7.02-15.43c1.5-3.44,2.7-7.01,4.19-10.46c2.29-5.29,4.76-10.5,7.07-15.78
			c1.49-3.42,2.76-6.94,4.24-10.36c1.42-3.28,3.05-6.46,4.49-9.73c2.25-5.12,4.39-10.29,6.65-15.41
			C322.44,665.32,323.44,663.69,324.39,661.9z"/>
		<path d="M794.16,661.52c17.85,41.09,35.48,81.86,53.28,122.56c17.76,40.62,35.7,81.17,53.56,121.75
			c-0.13,0.32-0.26,0.64-0.39,0.97c-2.38-0.19-4.78-0.31-7.15-0.59c-1.27-0.15-2.49-0.6-3.75-0.88c-5.1-1.16-10.2-2.31-15.29-3.46
			c-0.45-0.1-0.89-0.26-1.35-0.33c-4.66-0.72-9.36-1.27-13.98-2.2c-4.21-0.85-8.32-2.17-12.5-3.16c-2.96-0.7-5.96-1.23-8.96-1.77
			c-4.53-0.81-9.1-1.44-13.6-2.38c-4.59-0.95-9.11-2.18-13.67-3.29c-0.36-0.09-0.71-0.25-1.07-0.31c-4.55-0.68-9.13-1.26-13.66-2.05
			c-2.53-0.44-4.96-1.48-7.5-1.82c-5.18-0.69-6.05-0.03-8.34,4.67c-1.28,2.63-2.73,5.19-4.23,7.71c-2.89,4.86-5.89,9.66-8.8,14.51
			c-5.7,9.5-11.35,19.03-17.06,28.52c-3.67,6.11-7.39,12.2-11.12,18.28c-4.98,8.14-9.94,16.28-15,24.36c-0.64,1.03-1.85,1.71-3,2.75
			c-1.01-2.05-1.91-3.73-2.68-5.47c-2.49-5.6-4.97-11.21-7.37-16.85c-2.75-6.46-5.32-13.01-8.15-19.43
			c-3.31-7.52-6.93-14.91-10.23-22.43c-2.92-6.65-5.53-13.43-8.38-20.1c-2.06-4.81-4.34-9.54-6.46-14.33
			c-2.26-5.1-4.4-10.25-6.66-15.34c-2.25-5.08-4.65-10.09-6.87-15.19c-2.16-4.95-4.14-9.98-6.26-14.95
			c-1.28-3.01-2.68-5.97-4.01-8.96c-1.67-3.75-3.3-7.53-4.98-11.28c-2.35-5.23-4.77-10.42-7.08-15.67c-1.43-3.26-2.69-6.6-4.06-9.89
			c-1.44-3.44-2.91-6.87-4.38-10.3c-1.69-3.93-3.38-7.87-5.12-11.78c-1.46-3.28-3.05-6.51-4.51-9.79c-1.68-3.78-3.26-7.6-4.94-11.38
			c-2.09-4.7-4.08-9.45-6.4-14.03c-1.95-3.85-1.76-6.25,1.77-8.71c8.29-5.77,15.26-12.88,20.49-21.44
			c3.86-6.32,6.86-13.18,10.11-19.86c0.87-1.79,1.24-3.82,1.86-5.74c2.28-7.1,8.05-9.89,15.41-9.86c5.59,0.02,8.78,3.82,12.79,6.38
			c5.56,3.54,11,7.21,17.42,9.16c5.06,1.54,9.94,3.69,15.04,5.01c3.28,0.85,6.82,0.95,10.24,0.94c7.79-0.04,15.6-0.06,23.35-0.71
			c3.55-0.3,7-2.02,10.45-3.19c3.45-1.17,7.02-2.15,10.23-3.8c5.12-2.62,10.36-5.24,14.88-8.73c5.79-4.46,10.92-9.78,16.33-14.73
			C792.75,662.58,793.11,662.33,794.16,661.52z"/>
		<path d="M559.09,200.18c46.47,0.1,87,16.12,120.76,47.66c37.18,34.74,56.24,78.54,56.36,129.28
			c0.1,43.27-14.21,82.25-43.07,115.07c-35.59,40.47-80.37,61.57-134.48,61.77c-42.9,0.16-80.88-14.13-113.43-41.72
			c-42.49-36.01-63.65-82.76-63.22-138.1c0.35-44.52,16.59-83.94,46.91-116.8C464.17,219.11,511.61,199.69,559.09,200.18z"/>
	</g>
</g>
</svg>
