<?xml version="1.0" encoding="utf-8"?>
<!-- Generator: Adobe Illustrator 23.0.6, SVG Export Plug-In . SVG Version: 6.00 Build 0)  -->
<svg version="1.1" id="Lager_1" xmlns="http://www.w3.org/2000/svg" xmlns:xlink="http://www.w3.org/1999/xlink" x="0px" y="0px"
	 viewBox="0 0 1000 1000" style="enable-background:new 0 0 1000 1000;" xml:space="preserve">
<path d="M964.43,451.27c-0.77-1.97-1.92-4.96-2.6-5.76c-4.16-4.94-9.13-10.16-15.65-16.45c-6.46-6.23-13.29-12.48-19.89-18.52
	c-1.92-1.76-3.84-3.51-5.75-5.27c-2.28-2.1-4.67-4.24-6.98-6.31c-3.45-3.1-7.02-6.3-10.53-9.61c-3.64-3.43-7.21-6.92-10.67-10.3
	c-3.09-3.02-6.28-6.14-9.42-9.11c-9.04-8.56-18.13-17.02-28.22-26.4c-3.09-2.87-6.27-5.78-9.36-8.6c-3.5-3.2-7.13-6.52-10.69-9.84
	c-12.98-12.11-24.32-22.75-34.66-32.53c-3.27-3.09-6.52-6.24-9.66-9.28c-3.82-3.71-7.78-7.54-11.68-11.17
	c-2.67-2.49-5.43-4.92-8.35-7.49c-3.31-2.91-6.73-5.92-10.09-9.1c-3.07-2.9-5.94-5.85-8.72-8.7c-2.62-2.69-5.09-5.22-7.61-7.61
	c-7.82-7.4-15.92-14.86-23.75-22.07c-2.16-1.99-4.32-3.98-6.48-5.97c-2.51-2.31-5.03-4.6-7.55-6.9c-4.07-3.7-8.27-7.52-12.4-11.41
	c-3.44-3.24-6.82-6.55-10.08-9.74c-3.34-3.26-6.79-6.64-10.18-9.83c-1.93-1.81-4.03-3.62-6.26-5.52c-2.37-2.03-4.82-4.13-7.28-6.43
	c-3.57-3.35-7.07-6.76-10.46-10.06c-2.97-2.89-6.04-5.88-9.05-8.73c-4.47-4.21-9.12-8.47-13.62-12.59
	c-2.22-2.03-4.43-4.06-6.64-6.09c-1.67-1.54-3.28-3.08-4.84-4.57c-3.23-3.09-6.29-6-9.37-8.47c-2.06-1.65-5-3.84-6.68-3.87
	c-3.57-0.07-6.3-1.14-7.81-1.84c-0.11-0.04-0.22-0.07-0.32-0.11c-1.45,0.11-3.39,0.51-5.41,0.93c-0.82,0.17-1.64,0.34-2.46,0.5
	c-3.01,0.59-5.97,2.04-9.58,4.7c-3.78,2.79-6.38,6.46-7.93,11.23c-1.44,4.43-2.15,8.57-2.17,12.65c-0.08,24.46-0.07,49.34-0.06,73.4
	c0,8.43,0.01,16.87,0.01,25.3l0,7.39c0.01,8.59,0.01,17.47-0.05,26.23c-0.05,6.95-3.22,15.64-11.98,19.16
	c-3.71,1.5-7.76,2.74-12.03,3.68c-3.1,0.69-6.05,1.17-8.91,1.64c-0.76,0.12-1.52,0.25-2.27,0.38c-0.24,0.09-0.49,0.17-0.76,0.26
	c-0.39,0.12-0.78,0.25-1.17,0.38c-1.41,0.46-3.16,1.04-5.13,1.51c-2.85,0.68-5.69,1.3-8.43,1.91c-1.35,0.3-2.69,0.59-4.03,0.9
	c-0.73,0.16-1.47,0.32-2.2,0.48c-1.6,0.35-3.12,0.67-4.39,1.03c-1.75,0.49-3.54,1.05-5.44,1.63c-2.39,0.74-4.87,1.5-7.47,2.21
	c-2.59,0.7-5.04,1.24-7.42,1.76c-0.53,0.12-1.06,0.23-1.58,0.35c-0.3,0.14-0.62,0.27-0.95,0.4l-0.63,0.25
	c-1.24,0.5-2.94,1.18-4.98,1.72c-1.56,0.41-3.02,0.75-4.44,1.08c-1.83,0.42-3.56,0.83-4.94,1.27c-2.56,0.82-5.17,1.77-7.92,2.77
	c-2.38,0.87-4.85,1.76-7.4,2.62c-2.57,0.86-5,1.54-7.36,2.2c-1.11,0.31-2.23,0.62-3.33,0.95c-0.59,0.17-1.18,0.34-1.77,0.51
	c-1.42,0.41-2.75,0.79-3.73,1.16c-1.98,0.76-3.97,1.58-6.09,2.45c-2.72,1.12-5.54,2.28-8.48,3.37c-3.09,1.15-6.11,2.14-9.04,3.11
	c-1.9,0.63-3.69,1.22-5.46,1.83c-1.12,0.39-2.42,0.94-3.8,1.52l-3.54,1.48c-3.85,1.6-7.82,3.25-11.67,4.9
	c-3.6,1.54-7.28,3.21-10.84,4.82c-1.98,0.9-3.96,1.8-5.93,2.71c-2.22,1.02-4.44,2.04-6.67,3.04c-1.43,0.64-2.82,1.24-4.17,1.82
	c-2.1,0.9-4.08,1.75-5.86,2.63c-1.5,0.75-3.13,1.67-4.86,2.65c-1.55,0.88-3.14,1.79-4.87,2.7c-1.92,1.01-3.8,1.94-5.61,2.83
	c-2.04,1.01-3.96,1.95-5.75,2.93c-2.52,1.37-5.05,2.84-7.73,4.4c-1.41,0.82-2.82,1.64-4.23,2.45c-1.85,1.06-3.72,2.11-5.59,3.15
	c-3.83,2.14-7.44,4.17-10.89,6.31c-3.68,2.29-7.31,4.77-11.16,7.38c-1.88,1.28-3.77,2.57-5.66,3.83c-1.91,1.27-3.82,2.54-5.74,3.81
	c-3.44,2.28-7,4.63-10.4,6.96c-0.87,0.6-1.75,1.2-2.62,1.79c-4.26,2.91-8.29,5.65-11.96,8.57c-4.02,3.19-7.92,6.67-12.06,10.35
	c-1.13,1.01-2.26,2.01-3.39,3.01c-1.79,1.58-3.58,3.15-5.38,4.73c-5.39,4.71-10.47,9.17-15.35,13.84l-1.71,1.64
	c-11.43,10.94-22.23,21.28-31.47,32.9c-2.59,3.26-5.23,6.44-7.79,9.51c-1.61,1.94-3.22,3.88-4.82,5.83
	c-3.06,3.75-6.21,7.62-9.18,11.45c-2.01,2.6-4.07,5.44-6.31,8.68c-0.85,1.23-1.71,2.59-2.63,4.04c-0.89,1.41-1.82,2.87-2.83,4.38
	c-1.05,1.55-2.08,3.01-3.09,4.41c-1.31,1.84-2.55,3.58-3.59,5.23c-2.39,3.8-4.67,7.66-7.09,11.75c-0.73,1.23-1.46,2.47-2.19,3.7
	c-0.62,1.04-1.24,2.09-1.87,3.13c-1.99,3.32-3.87,6.46-5.6,9.61c-1.69,3.08-3.3,6.27-5,9.65c-0.61,1.22-1.23,2.44-1.85,3.66
	l-0.65,1.28c-2.43,4.78-4.94,9.71-7.35,14.56c-1.67,3.36-3.3,6.81-4.67,9.75l-0.88,1.87c-1.61,3.45-3.14,6.71-4.54,9.98
	c-0.87,2.02-1.7,4.15-2.57,6.41c-0.62,1.59-1.25,3.23-1.93,4.89c-0.61,1.51-1.23,2.95-1.83,4.34c-0.69,1.61-1.34,3.13-1.91,4.58
	c-1.29,3.28-2.51,6.56-3.8,10.04l-1.12,3.01c-0.29,0.78-0.58,1.55-0.88,2.33c-0.94,2.48-1.82,4.83-2.62,7.15
	c-0.76,2.2-1.49,4.42-2.26,6.76c-0.77,2.34-1.56,4.75-2.4,7.18c-0.59,1.7-1.19,3.27-1.77,4.78c-0.59,1.54-1.15,3-1.58,4.32
	c-1.19,3.63-2.28,7.31-3.44,11.21l-0.47,1.59c-0.91,3.05-1.64,5.59-2.27,8.08c-0.41,1.6-0.79,3.25-1.2,4.99
	c-0.58,2.47-1.17,5.03-1.89,7.66c-0.57,2.11-1.19,4.05-1.79,5.92c-0.62,1.93-1.2,3.75-1.59,5.35c-0.54,2.23-0.97,4.7-1.42,7.32
	c-0.26,1.48-0.51,2.97-0.79,4.45c-0.27,1.43-0.65,2.59-0.91,3.3c-0.32,1.23-0.64,2.47-0.96,3.7c-0.88,3.37-1.71,6.56-2.37,9.66
	c-0.51,2.41-0.9,5.03-1.31,7.81c-0.21,1.44-0.43,2.88-0.66,4.32c-0.18,1.1-0.42,1.99-0.63,2.68c-0.38,1.51-0.77,2.97-1.15,4.39
	c-0.85,3.18-1.64,6.18-2.14,8.97c-0.61,3.42-1.05,7-1.52,10.79c-0.28,2.27-0.57,4.63-0.91,7.01c-0.43,3.07-1.52,5.41-2.16,6.67
	c-0.54,4.57-1.07,9.21-1.57,13.72l-0.55,4.92c-0.02,0.14-0.03,0.28-0.04,0.42c-0.06,0.69-0.16,1.73-0.37,2.93
	c-0.41,2.36-0.86,4.71-1.28,6.98c-0.89,4.75-1.74,9.24-2.31,13.65c-1.01,7.8-1.63,15.67-2.14,23.01
	c-0.54,7.78,0.03,12.33,2.03,16.21c2.79,5.41,6.48,9.26,11.63,12.13c2.93,1.63,5.63,2.34,8.51,2.25c1.22-0.04,2.45-0.07,3.67-0.09
	c5.53-0.11,9.03-0.24,11.13-1.54c3.41-2.1,6.87-4.34,8.52-6.64c1.44-2.01,2.85-4.27,4.35-6.66c1.33-2.12,2.7-4.32,4.23-6.56
	c1.65-2.43,3.33-4.64,4.95-6.78c1.08-1.43,2.1-2.78,3.04-4.1c1.44-2.02,2.86-4.1,4.36-6.3c3.14-4.62,6.39-9.4,10.23-14.07
	c7.27-8.86,14.91-17.1,22.29-25.07c4-4.32,8.13-8.35,12.12-12.25c1.19-1.17,2.39-2.33,3.57-3.5c0.98-0.97,1.95-1.94,2.93-2.91
	c3.44-3.43,7-6.98,10.92-10.42c5.62-4.93,11.38-9.7,16.94-14.31c1.6-1.32,3.19-2.64,4.79-3.97c2.88-2.39,5.96-4.93,9.26-7.37
	c2.09-1.54,4.14-2.96,6.13-4.33c1.71-1.18,3.33-2.3,4.86-3.42c1.48-1.08,2.98-2.25,4.57-3.48c2.05-1.59,4.17-3.24,6.45-4.87
	c2.16-1.55,4.32-2.89,6.23-4.08c1.12-0.7,2.19-1.36,3.16-2.01c1.11-0.74,2.26-1.53,3.47-2.38c2.01-1.4,4.1-2.85,6.4-4.29
	c3.13-1.95,6.26-3.76,9.28-5.5c1.19-0.69,2.38-1.37,3.57-2.07c1.31-0.77,2.62-1.53,3.92-2.3c3.3-1.94,6.71-3.94,10.13-5.89
	c4.34-2.48,8.93-5.03,13.63-7.59c3.45-1.88,6.88-3.65,10.18-5.28c2.81-1.38,5.61-2.7,8.33-3.97c1.07-0.5,2.14-1,3.21-1.51
	c1.14-0.54,2.28-1.08,3.43-1.63c2.84-1.36,5.77-2.76,8.8-4.11c2.64-1.18,5.24-2.25,7.75-3.29c1.4-0.58,2.79-1.16,4.18-1.75
	c1.68-0.71,3.36-1.44,5.04-2.16c2.8-1.21,5.7-2.46,8.64-3.68c1.62-0.67,3.14-1.2,4.49-1.67c1.01-0.35,1.96-0.69,2.7-0.99
	c0.72-0.3,1.6-0.72,2.54-1.17c1.56-0.75,3.33-1.59,5.37-2.38c5.26-2.02,10.55-3.91,15.67-5.73l0.66-0.24
	c3.04-1.08,6.31-2.23,9.69-3.24c2.52-0.75,4.97-1.4,7.33-2.02c1.08-0.28,2.16-0.57,3.24-0.86c0.64-0.17,1.28-0.34,1.91-0.51
	c1.38-0.36,2.68-0.7,3.73-1.05c1.21-0.4,2.5-0.87,3.86-1.37c2.36-0.86,5.04-1.84,7.92-2.66c3.07-0.87,6.05-1.47,8.68-2
	c0.65-0.13,1.3-0.26,1.95-0.4c0.36-0.14,0.75-0.28,1.18-0.42l0.52-0.17c1.43-0.46,3.04-0.98,4.78-1.46
	c1.33-0.36,2.47-0.55,3.19-0.66c1.04-0.3,2.12-0.64,3.26-0.99c2.97-0.92,6.34-1.97,9.97-2.74c4.04-0.85,7.9-1.37,11.63-1.87
	c1.35-0.18,2.69-0.36,4.03-0.56c1.1-0.3,2.23-0.64,3.42-0.99c3.3-0.97,7.04-2.07,11.07-2.83c4.16-0.78,8.22-1.34,12.14-1.89
	c4.76-0.66,9.26-1.29,13.51-2.24c4.42-0.99,8.5-1.22,12.11-1.42c2.54-0.14,4.94-0.28,6.73-0.67c5.13-1.11,10.08-1.48,14.46-1.81
	c2.22-0.17,4.32-0.32,6.26-0.56c3.3-0.4,11.02-1.34,17.65,4.53c6.64,5.89,6.64,13.9,6.64,16.91l0,62.37
	c0,5.42-0.01,10.83-0.01,16.25c-0.02,14.42-0.04,29.34,0.09,43.96c0.03,3.11,0.59,6.61,1.33,10.86c0.09,0.53,0.18,0.89,0.24,1.09
	c2.39,3.55,5.14,7.15,8.18,10.71c1.32,1.55,3.27,2.89,5.81,4.01c0.11,0.03,0.22,0.05,0.33,0.08c0.77,0.18,1.83,0.43,3.03,0.81
	c0.65,0.21,1.24,0.43,1.77,0.64c3.9,0.07,8.1-0.01,12.49,0.08c1.36,0.04,3.34-0.82,5.85-2.53c4.59-3.11,9-7.03,13.5-11.12
	c5.4-4.91,10.85-10.09,16.13-15.1c2.64-2.51,5.27-5.01,7.93-7.51c3.24-3.04,6.48-6.08,9.72-9.12c3.92-3.67,7.84-7.34,11.75-11.02
	c2.66-2.51,5.3-5.03,7.94-7.55c3.85-3.67,7.84-7.47,11.83-11.19c2.85-2.65,5.73-5.26,8.53-7.78c3.31-2.99,6.44-5.81,9.53-8.72
	c1.72-1.62,3.45-3.4,5.28-5.29c2.17-2.24,4.42-4.55,6.9-6.86c2.83-2.63,5.69-5.11,8.45-7.51c2.61-2.26,5.08-4.4,7.43-6.58
	c9.3-8.63,18.66-17.54,27.71-26.15c3.21-3.05,6.47-6.21,9.62-9.26c3.92-3.79,7.97-7.71,12.04-11.55c2.22-2.1,4.44-4.04,6.58-5.92
	c2.05-1.8,3.98-3.49,5.78-5.2c3.35-3.18,6.76-6.5,10.06-9.71c4.09-3.98,8.32-8.1,12.62-12.13c4.09-3.83,8.27-7.58,12.3-11.21
	c3.31-2.97,6.73-6.05,10-9.08c6.77-6.27,13.63-12.73,20.26-18.97c2.53-2.38,5.05-4.76,7.58-7.14c2.36-2.22,4.72-4.43,7.08-6.64
	c6.61-6.2,13.45-12.62,20.11-18.95c3.22-3.06,6.49-6.23,9.65-9.3c4.17-4.04,8.48-8.23,12.84-12.31c3.55-3.33,7.17-6.59,10.67-9.74
	c4.24-3.82,8.24-7.43,12.16-11.17c5-4.77,10.05-9.79,14.94-14.65c3.59-3.57,7.3-7.26,11.03-10.88c2.33-2.27,3.81-5.24,4.4-8.86
	c0.91-5.56,1.23-10.01-0.18-13.62L964.43,451.27z M892.03,460.17c-0.23,5.57-2.81,10.73-7.28,14.52c-3.11,2.65-6.39,5.6-10.03,9.02
	c-2.62,2.47-5.3,5.05-7.89,7.54c-2.86,2.75-5.82,5.6-8.8,8.4c-2.12,1.99-4.24,3.87-6.29,5.69c-2.09,1.86-4.07,3.62-5.95,5.39
	c-5.23,4.95-10.55,10.02-15.68,14.94c-4.32,4.14-8.65,8.27-12.99,12.39c-11.29,10.71-21.5,20.38-32.07,30.24
	c-3.06,2.85-6.16,5.62-9.16,8.3c-3.02,2.69-5.87,5.24-8.67,7.86c-2.65,2.47-5.24,5.02-7.99,7.71c-2.57,2.53-5.24,5.14-7.97,7.71
	c-4.68,4.4-9.45,8.8-14.07,13.05c-3.37,3.11-6.75,6.22-10.11,9.35c-1.82,1.69-3.61,3.42-5.51,5.25c-1.82,1.75-3.7,3.57-5.62,5.37
	c-3.29,3.08-6.64,6.17-9.88,9.16c-2.95,2.72-5.89,5.44-8.83,8.18c-6.08,5.67-12.24,11.47-18.21,17.08l-2.37,2.23
	c-2.44,2.29-4.87,4.59-7.31,6.88c-6.68,6.29-13.58,12.8-20.43,19.17c-3.52,3.27-7.27,4.34-9.01,4.8L624,706.26l-5.76-16.05
	c-0.66-1.44-2.11-4.69-2.13-9c-0.02-7.69-0.02-15.49-0.01-23.03c0.01-9.57,0.02-19.46-0.03-29.16c-0.01-1.12-0.01-2.24-0.01-3.36
	c-0.03-7.62-0.05-14.82-0.7-21.78c-0.06-0.29-0.42-1.52-2.2-4.56c-2.29-3.91-5.53-7.19-9.64-9.74c-2.55-1.58-5.74-2.69-10.33-3.57
	c-1.95-0.38-4.65-0.16-7.77,0.09c-1.85,0.15-3.95,0.32-6.16,0.38c-4.4,0.13-8.77,0.13-12.99,0.14c-7.56,0.01-14.7,0.02-21.57,0.69
	c-3.86,0.38-7.59,0.56-11.19,0.74c-4.83,0.24-9.4,0.47-13.55,1.12c-6.43,1.02-12.9,1.74-19.76,2.2c-2.95,0.2-6.24,0.76-9.72,1.36
	c-1.35,0.23-2.7,0.46-4.05,0.68c-1.7,0.27-3.4,0.54-5.09,0.81c-6.54,1.03-12.71,2.01-18.9,3.19c-2.55,0.48-5.31,1.24-8.23,2.04
	c-1.56,0.43-3.17,0.87-4.83,1.29c-1.22,0.31-2.28,0.49-2.98,0.6l-0.33,0.05c-1.77,0.31-3.43,0.53-5.03,0.74
	c-2.54,0.34-4.94,0.66-6.47,1.18c-5.31,1.78-10.34,2.83-15.2,3.86c-1.78,0.37-3.45,0.73-5.1,1.11c-1.15,0.27-2.75,0.86-4.45,1.49
	c-1.46,0.54-3.12,1.16-4.91,1.72c-3.1,0.98-6.09,1.7-8.89,2.36c-1.65,0.39-3.24,0.73-4.77,1.05c-2.01,0.43-3.91,0.83-5.65,1.29
	c-1.41,0.37-3.04,0.93-4.77,1.52c-0.84,0.29-1.68,0.58-2.53,0.86c-1.68,0.55-3.35,1.1-5.03,1.65c-4.33,1.42-8.42,2.75-12.51,4.19
	c-3.16,1.11-6.31,2.31-9.65,3.59c-1.55,0.59-3.09,1.18-4.64,1.77c-0.57,0.21-1.13,0.43-1.7,0.64c-1.51,0.58-3.08,1.17-4.73,1.75
	c-1.71,0.6-3.42,1.19-5.14,1.78c-3.02,1.03-5.88,2.01-8.63,3.06c-2.41,0.92-4.9,2.04-7.55,3.22c-1.04,0.46-2.08,0.93-3.13,1.39
	l-2.03,0.89c-3.5,1.53-6.81,2.98-10.12,4.49c-3.29,1.5-6.64,3.07-9.89,4.59c-2.57,1.2-5.14,2.4-7.72,3.59
	c-1.4,0.65-2.76,1.24-4.07,1.82c-1.88,0.83-3.66,1.61-5.26,2.41c-2,1-4.04,2.1-6.19,3.26c-1.79,0.96-3.64,1.96-5.56,2.95
	c-1.66,0.86-3.25,1.61-4.79,2.34c-1.51,0.71-2.93,1.39-4.21,2.06c-4.77,2.5-9.4,5.02-13.78,7.49c-3.6,2.03-7.14,4.15-10.9,6.4
	l-0.75,0.45c-2.03,1.21-4.04,2.45-6.06,3.68c-2.46,1.5-5,3.05-7.56,4.58c-1.49,0.89-2.92,1.68-4.29,2.44
	c-1.52,0.84-2.96,1.64-4.19,2.41c-2.91,1.82-5.96,3.87-9.32,6.25l-3.11,2.2c-6.07,4.3-12.35,8.75-18.32,13.21
	c-5.28,3.95-10.64,8.09-15.82,12.09c-3.52,2.72-7.16,5.53-10.78,8.28c-2.65,2.02-5.25,2.97-6.5,3.43l-0.15,0.05L128.2,750
	l-9.49-23.01l1.83-5.95c0.32-1.05,0.66-2.09,0.99-3.14c0.66-2.07,1.29-4.03,1.76-5.85c0.34-1.31,0.66-2.8,0.99-4.37
	c0.45-2.1,0.95-4.49,1.64-6.96c0.71-2.55,1.55-4.84,2.3-6.86c0.4-1.07,0.77-2.09,1.07-3c0.52-1.59,1.02-3.22,1.55-4.95
	c0.5-1.63,1.01-3.31,1.57-5.02c0.95-2.92,1.94-5.71,2.87-8.29l0.65-1.82c1.11-3.11,2.27-6.32,3.55-9.57c1.13-2.86,2.3-5.68,3.43-8.4
	c0.78-1.88,1.56-3.75,2.32-5.63c0.43-1.06,0.86-2.23,1.31-3.46c0.32-0.87,0.64-1.75,0.98-2.62l0.51-1.35
	c0.81-2.12,1.64-4.3,2.54-6.53l0.28-0.69c1.17-2.88,2.38-5.86,3.77-8.91c1.68-3.66,3.48-7.24,5.02-10.26
	c1.83-3.59,3.68-7.03,5.56-10.54l0.11-0.21c2.88-5.36,5.86-10.9,8.86-16.35c0.67-1.22,1.34-2.45,2-3.68
	c2.21-4.07,4.49-8.29,7.15-12.51c4.71-7.47,9.68-14.73,14.49-21.76c0.84-1.23,1.67-2.45,2.51-3.68c3.73-5.5,7.6-11.19,11.96-16.72
	c4.6-5.83,9.45-11.28,14.14-16.55c1.19-1.34,2.39-2.68,3.58-4.03l1.25-1.42c3.81-4.32,7.75-8.79,12.1-13.11
	c3.79-3.76,7.66-7.27,11.41-10.67c1.66-1.5,3.32-3.01,4.96-4.52c1.2-1.11,2.39-2.24,3.58-3.37c2.69-2.55,5.46-5.19,8.52-7.77
	c4.71-3.99,9.52-7.74,14.17-11.37l1.72-1.34c3.9-3.05,8.55-6.64,13.44-10.18c2.97-2.15,5.93-4.1,8.79-5.98
	c0.8-0.53,1.61-1.06,2.41-1.59c1.47-0.97,2.95-1.93,4.43-2.88c1.09-0.7,2.18-1.4,3.26-2.12c0.92-0.61,1.84-1.23,2.75-1.84
	c1.89-1.28,3.85-2.6,5.99-3.92c4.71-2.89,9.78-5.96,14.99-8.89c2.86-1.61,5.68-3.04,8.4-4.43c1.58-0.81,3.08-1.57,4.55-2.35
	c1.72-0.91,3.44-1.85,5.25-2.84c3.47-1.9,7.06-3.86,10.85-5.7c3.81-1.86,7.59-3.5,11.24-5.08c1.93-0.84,3.76-1.63,5.57-2.44
	c1.84-0.83,3.68-1.69,5.63-2.6c3.84-1.79,7.81-3.65,12.02-5.35c4.25-1.72,8.46-3.2,12.53-4.64c2.42-0.85,4.7-1.66,6.97-2.5
	c0.51-0.19,1.27-0.54,2.08-0.91c1.3-0.6,2.92-1.34,4.77-2.01c2.33-0.85,4.58-1.57,6.76-2.27c1.4-0.45,2.72-0.88,4-1.31
	c1.86-0.63,3.77-1.37,5.56-2.08c1.08-0.42,2.15-0.86,3.23-1.3c1.84-0.75,3.75-1.53,5.78-2.28c3.08-1.14,5.97-2.09,8.82-2.9
	c1.79-0.51,3.46-0.92,5.09-1.32c1.63-0.4,3.18-0.78,4.52-1.19c1.17-0.35,2.5-0.84,3.91-1.35c1.84-0.67,3.92-1.42,6.18-2.08
	c2.72-0.8,5.33-1.43,7.84-2.04c1.45-0.35,2.81-0.68,4.13-1.03c1.96-0.51,3.92-1.06,5.99-1.63c1.43-0.4,2.86-0.8,4.3-1.18
	c0.87-0.23,1.74-0.45,2.61-0.67c0.66-0.16,1.31-0.32,1.96-0.5c0.67-0.18,1.35-0.39,2.03-0.61c1.11-0.56,2.84-1.31,5.04-1.75
	c1.61-0.32,3.15-0.6,4.65-0.86c2.2-0.39,4.28-0.76,6.11-1.21c3.03-0.74,6.11-1.64,9.37-2.59c1.47-0.43,2.94-0.85,4.41-1.27
	c0.63-0.19,1.46-0.41,2.51-0.59c1.56-0.26,3.13-0.51,4.7-0.75c3.26-0.51,6.33-0.99,9.26-1.6c3.09-0.64,6.24-1.45,9.59-2.31
	c1.46-0.37,2.91-0.75,4.37-1.11c0.61-0.18,1.64-0.47,2.94-0.67c1.67-0.25,3.3-0.47,4.87-0.68c3.09-0.41,6-0.8,8.55-1.38
	c2.64-0.6,5.39-1.56,7.98-2.77c2.87-1.35,5.27-2.77,7.12-4.24c3-2.37,5.29-5.85,7.2-10.94c0.81-2.17,0.91-5.14,0.95-8.8
	c0.18-16.38,0.16-33.09,0.14-49.25c-0.01-5.78-0.01-11.56-0.01-17.34c-0.11-1.83-0.08-4.42,0.94-7.43l0.04-0.12
	c1.85-6.11,5.37-10.38,10.46-12.69c8.42-3.83,16.8-0.35,21.41,3.8c3.83,3.45,7.61,6.96,11.26,10.36l7.98,7.41
	c5.62,5.22,11.24,10.44,16.85,15.67c4.89,4.57,9.76,9.15,14.64,13.72c3.19,3,6.38,5.99,9.57,8.99c3.15,2.95,6.3,5.9,9.45,8.84
	c5.9,5.51,12,11.21,17.98,16.87c4.07,3.85,8.16,7.76,12.12,11.55c4.41,4.22,8.97,8.59,13.46,12.82c3.35,3.15,6.86,6.35,10.26,9.45
	c2.4,2.19,4.89,4.45,7.34,6.72l4.59,4.24c7,6.47,14.24,13.16,21.31,19.87c3.2,3.04,6.31,6.13,9.32,9.11
	c3.2,3.18,6.23,6.19,9.34,9.12c2.77,2.61,5.65,5.16,8.7,7.85c2.78,2.45,5.65,4.99,8.49,7.64c3.17,2.95,6.25,5.95,9.24,8.86
	c2.83,2.75,5.5,5.35,8.23,7.91c2.63,2.46,5.34,4.86,8.2,7.4c2.22,1.97,4.51,4.01,6.79,6.09c4.74,4.34,8.52,7.94,11.9,11.33
	C890.1,449.23,892.25,454.59,892.03,460.17z"/>
</svg>
